<svg id="Iconly_Bold_Calling" data-name="Iconly/Bold/Calling" xmlns="http://www.w3.org/2000/svg" width="36" height="36" viewBox="0 0 36 36">
  <g id="Calling" transform="translate(3 3)">
    <path id="Calling-2" data-name="Calling" d="M19.68,29.169C13.245,26.483,3.413,16.847.814,10.461-.264,8.084-.273,6.122.8,4.649c.425-.691,2.853-3.58,5.026-3.488a2.8,2.8,0,0,1,1.692.886c.833.818,3.19,3.806,3.372,4.682a3.349,3.349,0,0,1-.633,2.43c-.4.7-1.473,2.03-1.193,2.807a17.237,17.237,0,0,0,9.14,8.88c.759.277,2.087-.8,2.785-1.2a3.316,3.316,0,0,1,2.423-.636c.873.185,3.852,2.6,4.668,3.44a2.783,2.783,0,0,1,.878,1.682c.081,2.223-2.94,4.761-3.49,5.077A4.232,4.232,0,0,1,22.929,30,7.786,7.786,0,0,1,19.68,29.169ZM22.252,11.9h0a5.191,5.191,0,0,0-4.115-4.126,1.29,1.29,0,0,1,.49-2.534A7.763,7.763,0,0,1,24.778,11.4a1.3,1.3,0,0,1-1.017,1.516,1.417,1.417,0,0,1-.248.023A1.29,1.29,0,0,1,22.252,11.9Zm5.184-.112a10.368,10.368,0,0,0-9.189-9.207A1.295,1.295,0,0,1,17.6.275a1.227,1.227,0,0,1,.938-.263A12.925,12.925,0,0,1,29.992,11.5a1.285,1.285,0,0,1-1.134,1.426,1.058,1.058,0,0,1-.146.009A1.285,1.285,0,0,1,27.436,11.784Z" transform="translate(0 0)" fill="#b5cfed"/>
  </g>
</svg>
