<svg id="Iconly_Bold_Notification" data-name="Iconly/Bold/Notification" xmlns="http://www.w3.org/2000/svg" width="42" height="42" viewBox="0 0 42 42">
  <g id="Notification" transform="translate(6.16 3.52)">
    <path id="Notification-2" data-name="Notification" d="M14.049,35.139a6.37,6.37,0,0,1-3.016-1.289,2.73,2.73,0,0,1-1.224-2.064c0-.887.813-1.292,1.565-1.467a45.676,45.676,0,0,1,7.121,0c.752.174,1.565.58,1.565,1.467a2.734,2.734,0,0,1-1.223,2.065,6.4,6.4,0,0,1-3.014,1.288,7.03,7.03,0,0,1-.9.059A6.454,6.454,0,0,1,14.049,35.139ZM6.624,27.714a7.981,7.981,0,0,1-5.1-2.487A6.361,6.361,0,0,1,0,21.041a5.927,5.927,0,0,1,1.286-4.066A6.683,6.683,0,0,0,3.157,11.96v-.749a9.9,9.9,0,0,1,2.259-6.79A12.448,12.448,0,0,1,14.881,0h.158A12.392,12.392,0,0,1,24.66,4.619a9.76,9.76,0,0,1,2.1,6.592v.749a6.844,6.844,0,0,0,1.869,5.015,5.92,5.92,0,0,1,1.286,4.066A6.36,6.36,0,0,1,28.4,25.227a7.988,7.988,0,0,1-5.1,2.487c-2.766.234-5.533.434-8.336.434A73.368,73.368,0,0,1,6.624,27.714Z" transform="translate(0)" fill="#b5cfed"/>
  </g>
</svg>
