<svg id="Iconly_Bold_Message" data-name="Iconly/Bold/Message" xmlns="http://www.w3.org/2000/svg" width="42" height="42" viewBox="0 0 42 42">
  <g id="Message" transform="translate(3.521 5.28)">
    <path id="Message-2" data-name="Message" d="M26.291,31.678H8.9A8.906,8.906,0,0,1,0,22.791V8.887A8.906,8.906,0,0,1,8.9,0H26.291a8.96,8.96,0,0,1,6.3,2.607A8.82,8.82,0,0,1,35.2,8.887v13.9A8.907,8.907,0,0,1,26.291,31.678ZM7.1,9.232a1.29,1.29,0,0,0-.94.4,1.345,1.345,0,0,0-.125,1.76l.231.228,8.007,6.249a5.507,5.507,0,0,0,3.432,1.2,5.6,5.6,0,0,0,3.447-1.2l7.94-6.353.141-.141a1.362,1.362,0,0,0-.021-1.76,1.463,1.463,0,0,0-.93-.458l-.074,0a1.337,1.337,0,0,0-.914.354l-7.935,6.336a2.754,2.754,0,0,1-1.754.634,2.8,2.8,0,0,1-1.766-.634L7.92,9.5A1.369,1.369,0,0,0,7.1,9.232Z" fill="#b5cfed"/>
  </g>
</svg>
