<svg xmlns="http://www.w3.org/2000/svg" width="22" height="22" viewBox="0 0 31.518 31.518">
  <g id="svgexport-10" transform="translate(-2 -2)">
    <g id="Layer_2" data-name="Layer 2" transform="translate(2 2)">
      <path id="Path_5091" data-name="Path 5091" d="M33.518,11.005V7.628a3.377,3.377,0,0,0-3.377-3.377h-4.5V3.126a1.126,1.126,0,1,0-2.251,0V4.251H12.131V3.126a1.126,1.126,0,1,0-2.251,0V4.251h-4.5A3.377,3.377,0,0,0,2,7.628v3.377Z" transform="translate(-2 -2)" fill="#b5cfed"/>
      <path id="Path_5092" data-name="Path 5092" d="M2,12V28.885a3.377,3.377,0,0,0,3.377,3.377H30.141a3.377,3.377,0,0,0,3.377-3.377V12Zm22.119,6.483-7.88,6.754a1.126,1.126,0,0,1-1.528-.06L11.335,21.8a1.126,1.126,0,1,1,1.592-1.592l2.641,2.641,7.092-6.078a1.126,1.126,0,1,1,1.463,1.71Z" transform="translate(-2 -0.744)" fill="#b5cfed"/>
    </g>
  </g>
</svg>
