<svg id="Iconly_Bold_Document" data-name="Iconly/Bold/Document" xmlns="http://www.w3.org/2000/svg" width="38" height="38" viewBox="0 0 38 38">
  <g id="Document" transform="translate(4.75 3.167)">
    <path id="Document-2" data-name="Document" d="M20.886,31.666H7.615C2.776,31.666,0,28.873,0,24V7.648A7.774,7.774,0,0,1,2,2.013,7.7,7.7,0,0,1,7.615,0H20.886C25.725,0,28.5,2.788,28.5,7.648V24a7.744,7.744,0,0,1-1.973,5.673A7.63,7.63,0,0,1,20.886,31.666ZM7.914,21.749a1.236,1.236,0,0,0-1.058.592,1.245,1.245,0,0,0,1.033,1.91,1.109,1.109,0,0,0,.154-.01H20.457a1.251,1.251,0,0,0,0-2.485H8.043A1.266,1.266,0,0,0,7.914,21.749Zm.129-7.215a1.235,1.235,0,0,0,0,2.471H20.457a1.235,1.235,0,0,0,0-2.471Zm0-7.171v.016l0,0a1.234,1.234,0,0,0,0,2.468h4.734a1.243,1.243,0,0,0,0-2.485Z" transform="translate(0)" fill="#b5cfed"/>
  </g>
</svg>
