<svg id="Group_313" data-name="Group 313" xmlns="http://www.w3.org/2000/svg" width="38" height="38" viewBox="0 0 38 38">
  <path id="Path_4995" data-name="Path 4995" d="M10.683,251.525a5.883,5.883,0,1,0-7.215,0A7.068,7.068,0,0,0,0,257.615V260a1.113,1.113,0,0,0,1.113,1.113H13.038A1.113,1.113,0,0,0,14.151,260v-2.385A7.068,7.068,0,0,0,10.683,251.525Zm-7.264-4.642a3.657,3.657,0,1,1,3.657,3.657A3.661,3.661,0,0,1,3.419,246.883Zm8.506,12h-9.7v-1.272a4.849,4.849,0,0,1,9.7,0v1.272Z" transform="translate(0 -223.113)" fill="#fff"/>
  <path id="Path_4996" data-name="Path 4996" d="M211.8,0H197.492A4.688,4.688,0,0,0,192.8,4.691V26.155a1.114,1.114,0,0,0,1.781.891l4.473-3.355H211.8A4.688,4.688,0,0,0,216.492,19V4.691A4.688,4.688,0,0,0,211.8,0Zm2.464,19a2.462,2.462,0,0,1-2.464,2.464H198.684a1.115,1.115,0,0,0-.668.223l-2.988,2.241V4.691a2.462,2.462,0,0,1,2.464-2.464H211.8a2.462,2.462,0,0,1,2.464,2.464Z" transform="translate(-178.492)" fill="#fff"/>
  <path id="Path_4997" data-name="Path 4997" d="M270.1,80.332H258.179a1.113,1.113,0,0,0,0,2.227H270.1a1.113,1.113,0,0,0,0-2.227Z" transform="translate(-237.987 -74.37)" fill="#fff"/>
  <path id="Path_4998" data-name="Path 4998" d="M270.1,144.6H258.179a1.113,1.113,0,0,0,0,2.227H270.1a1.113,1.113,0,0,0,0-2.227Z" transform="translate(-237.987 -133.87)" fill="#fff"/>
  <path id="Path_4999" data-name="Path 4999" d="M264.141,208.867h-5.962a1.113,1.113,0,0,0,0,2.227h5.962a1.113,1.113,0,0,0,0-2.227Z" transform="translate(-237.987 -193.365)" fill="#fff"/>
</svg>
