<svg id="Group_312" data-name="Group 312" xmlns="http://www.w3.org/2000/svg" width="33.204" height="33.203" viewBox="0 0 33.204 33.203">
  <path id="Path_4986" data-name="Path 4986" d="M191.155,115.625h6.178a.973.973,0,0,0,0-1.946h-6.178a.973.973,0,0,0,0,1.946Z" transform="translate(-177.849 -106.307)" fill="#fff"/>
  <path id="Path_4987" data-name="Path 4987" d="M23.737,0H.973A.973.973,0,0,0,0,.973V32.231a.973.973,0,0,0,.973.973H23.737a.973.973,0,0,0,.973-.973V.973A.973.973,0,0,0,23.737,0Zm-.973,31.258H1.946V1.946H22.765Z" fill="#fff"/>
  <path id="Path_4988" data-name="Path 4988" d="M416.78,23.573V3.3a3.3,3.3,0,0,0-6.6,0V23.573a.972.972,0,0,0,.885.968l-.827,2.284a.973.973,0,0,0,.031.737l2.329,5.074a.973.973,0,0,0,1.768,0l2.329-5.074a.973.973,0,0,0,.031-.737l-.827-2.284A.972.972,0,0,0,416.78,23.573Zm-4.658-.973V8.1h2.712V22.6h-2.712Zm1.356-20.655A1.358,1.358,0,0,1,414.834,3.3V6.155h-2.712V3.3A1.358,1.358,0,0,1,413.478,1.946Zm0,27.953L412.2,27.113l.929-2.567h.7l.929,2.567Z" transform="translate(-383.576)" fill="#fff"/>
  <path id="Path_4989" data-name="Path 4989" d="M66.512,90.644a.973.973,0,0,0,1.376,0l2.955-2.955a.973.973,0,0,0-1.376-1.376L67.2,88.58l-.7-.7a.973.973,0,0,0-1.376,1.376Z" transform="translate(-60.63 -80.45)" fill="#fff"/>
  <path id="Path_4990" data-name="Path 4990" d="M191.155,206.63h6.178a.973.973,0,1,0,0-1.945h-6.178a.973.973,0,1,0,0,1.945Z" transform="translate(-177.849 -191.41)" fill="#fff"/>
  <path id="Path_4991" data-name="Path 4991" d="M66.512,181.648a.973.973,0,0,0,1.376,0l2.955-2.955a.973.973,0,0,0-1.376-1.376L67.2,179.584l-.7-.7a.973.973,0,1,0-1.376,1.376Z" transform="translate(-60.63 -165.552)" fill="#fff"/>
  <path id="Path_4992" data-name="Path 4992" d="M191.155,297.633h6.178a.973.973,0,1,0,0-1.945h-6.178a.973.973,0,1,0,0,1.945Z" transform="translate(-177.849 -276.512)" fill="#fff"/>
  <path id="Path_4993" data-name="Path 4993" d="M191.155,392.124h6.178a.973.973,0,0,0,0-1.946h-6.178a.973.973,0,0,0,0,1.946Z" transform="translate(-177.849 -364.875)" fill="#fff"/>
  <path id="Path_4994" data-name="Path 4994" d="M66.512,272.654a.973.973,0,0,0,1.376,0l2.955-2.955a.973.973,0,0,0-1.376-1.376L67.2,270.591l-.7-.7a.973.973,0,0,0-1.376,1.376Z" transform="translate(-60.63 -250.656)" fill="#fff"/>
</svg>
