<svg xmlns="http://www.w3.org/2000/svg" width="32.943" height="32.5" viewBox="0 0 32.943 32.5">
  <g id="Group_711" data-name="Group 711" transform="translate(-10.75 -15.972)" style="isolation: isolate">
    <path id="Path_5075" data-name="Path 5075" d="M24.31,37.389H11.5a.75.75,0,0,1-.75-.75V27.905a7.155,7.155,0,0,1,14.31,0v8.734A.75.75,0,0,1,24.31,37.389Zm-12.06-1.5H23.56V27.905a5.655,5.655,0,0,0-11.31,0Z" transform="translate(0 0.823)" fill="#fff"/>
    <path id="Path_5076" data-name="Path 5076" d="M42.038,37.389H23.405a.75.75,0,1,1,0-1.5H41.288V27.905a5.662,5.662,0,0,0-5.655-5.655H17a.75.75,0,0,1,0-1.5H35.633a7.163,7.163,0,0,1,7.155,7.155v8.734A.75.75,0,0,1,42.038,37.389Z" transform="translate(0.905 0.823)" fill="#fff"/>
    <path id="Path_5077" data-name="Path 5077" d="M21.652,33.908H13.5a.75.75,0,0,1-.75-.75V28.5a.75.75,0,1,1,1.5,0v3.908H20.9V28.5a.75.75,0,1,1,1.5,0v4.658A.75.75,0,0,1,21.652,33.908Z" transform="translate(0.329 1.975)" fill="#fff"/>
    <path id="Rectangle_445" data-name="Rectangle 445" d="M0-.75H3A.75.75,0,0,1,3.75,0V10a.75.75,0,0,1-.75.75H0A.75.75,0,0,1-.75,10V0A.75.75,0,0,1,0-.75ZM2.25.75H.75v8.5h1.5Z" transform="translate(26.722 37.722)" fill="#fff"/>
    <path id="Ellipse_179" data-name="Ellipse 179" d="M1.5-.75A2.25,2.25,0,1,1-.75,1.5,2.253,2.253,0,0,1,1.5-.75Zm0,3A.75.75,0,1,0,.75,1.5.751.751,0,0,0,1.5,2.25Z" transform="translate(28.722 26.722)" fill="#fff"/>
    <path id="Line_5" data-name="Line 5" d="M0,10.75A.75.75,0,0,1-.75,10V0A.75.75,0,0,1,0-.75.75.75,0,0,1,.75,0V10A.75.75,0,0,1,0,10.75Z" transform="translate(29.722 16.722)" fill="#fff"/>
    <path id="Rectangle_446" data-name="Rectangle 446" d="M0-.75H5A.75.75,0,0,1,5.75,0V3A.75.75,0,0,1,5,3.75H0A.75.75,0,0,1-.75,3V0A.75.75,0,0,1,0-.75ZM4.25.75H.75v1.5h3.5Z" transform="translate(29.722 16.722)" fill="#fff"/>
  </g>
</svg>
