<svg xmlns="http://www.w3.org/2000/svg" version="1.1" fill="#fff"><g><g xmlns="http://www.w3.org/2000/svg"><path d="m23 16c0-2.757-2.243-5-5-5s-5 2.243-5 5 2.243 5 5 5 5-2.243 5-5zm-8 0c0-1.654 1.346-3 3-3s3 1.346 3 3-1.346 3-3 3-3-1.346-3-3z" fill="#FFFFFF"  ></path><path d="m27 16c0-4.963-4.037-9-9-9s-9 4.037-9 9 4.037 9 9 9 9-4.037 9-9zm-16 0c0-3.859 3.141-7 7-7s7 3.141 7 7-3.141 7-7 7-7-3.141-7-7z" fill="#FFFFFF"  ></path><path d="m59 35h-6v26h-2v-20h-6v20h-2v-14h-6v14h-2v-11.631c0-1.507-.204-2.974-.58-4.375l12.58-12.58 3 3 8-8 2.438 2.438 3.144-9.433-9.433 3.144 2.437 2.437-6.586 6.586-3-3-13.303 13.303c-1.923-4.618-5.853-8.238-10.865-9.684l-.756-3.021.228-1.827c.479-.166.943-.357 1.392-.573l2.173 1.689 5.604-5.604-1.689-2.173c.216-.448.407-.913.573-1.392l2.734-.342v-7.926l-2.734-.342c-.166-.479-.357-.943-.573-1.392l1.689-2.173-5.604-5.604-2.173 1.689c-.448-.216-.913-.407-1.392-.573l-.342-2.734h-7.926l-.342 2.734c-.479.166-.943.357-1.392.573l-2.173-1.689-5.602 5.606 1.689 2.173c-.216.448-.407.913-.573 1.392l-2.734.342v7.926l2.734.342c.166.479.357.943.573 1.392l-1.689 2.173 5.604 5.604 2.173-1.689c.448.216.913.407 1.392.573l.228 1.827-.756 3.021c-7.191 2.073-12.168 8.626-12.168 16.162v13.631h62v-2h-4zm1.419-11.419-.856 2.567-1.711-1.711zm-5.419 13.419h2v24h-2zm-8 6h2v18h-2zm-8 6h2v12h-2zm-6 .369v11.631h-3.969v-16h-2.063v16h-6.555l3.687-3.687-4.063-17.267.46-1.381 3.204 1.922.914-4.571c5.051 2.437 8.385 7.565 8.385 13.353zm-19.097-14.299 2.02 1.01-2.221 1.332-.431-2.155c.208-.068.419-.129.632-.187zm6.339-3.979.593 2.373-2.835 1.418-2.835-1.418.593-2.373zm2.487 4.166-.431 2.155-2.221-1.332 2.02-1.01c.213.058.424.119.632.187zm-4.729 1.909.742.445-.462 1.389h-.56l-.463-1.388zm-.208 3.834h.417l3.691 15.687-3.9 3.899-3.899-3.899zm-5.078-15.46-.63-.35-1.771 1.378-2.881-2.881 1.378-1.771-.35-.63c-.392-.705-.707-1.472-.938-2.278l-.199-.692-2.231-.278v-4.074l2.231-.278.199-.692c.231-.807.547-1.573.938-2.278l.35-.63-1.378-1.773 2.881-2.881 1.771 1.378.63-.35c.705-.392 1.472-.707 2.278-.938l.692-.199.278-2.231h4.074l.278 2.231.692.199c.807.231 1.573.547 2.278.938l.63.35 1.771-1.378 2.881 2.881-1.378 1.771.35.63c.392.705.707 1.472.938 2.278l.199.692 2.231.278v4.074l-2.231.278-.199.692c-.231.807-.547 1.573-.938 2.278l-.35.63 1.378 1.771-2.881 2.881-1.771-1.378-.63.35c-.705.392-1.472.707-2.278.938l-.692.199-.278 2.231h-4.074l-.278-2.231-.692-.199c-.806-.229-1.573-.544-2.278-.936zm-9.714 23.829c0-5.788 3.334-10.916 8.384-13.353l.914 4.571 3.204-1.922.46 1.381-4.063 17.267 3.687 3.687h-6.555v-16h-2.062v16h-3.969z" fill="#FFFFFF"  ></path><path d="m41 1h-6v6h6zm-2 4h-2v-2h2z" fill="#FFFFFF"  ></path><path d="m43 3.074h12v1.852h-12z" fill="#FFFFFF"  ></path><path d="m41 9h-6v6h6zm-2 4h-2v-2h2z" fill="#FFFFFF"  ></path><path d="m43 11.074h12v1.852h-12z" fill="#FFFFFF"  ></path><path d="m41 17h-6v6h6zm-2 4h-2v-2h2z" fill="#FFFFFF"  ></path><path d="m43 19.074h12v1.852h-12z" fill="#FFFFFF"  ></path></g></g></svg>