<svg xmlns="http://www.w3.org/2000/svg" width="62" height="62" viewBox="0 0 62 62">
  <g id="Group_763" data-name="Group 763" transform="translate(-144 -263)">
    <circle id="Ellipse_70" data-name="Ellipse 70" cx="31" cy="31" r="31" transform="translate(144 263)" fill="#43a2cc"/>
    <g id="Group_244" data-name="Group 244" transform="translate(156.997 275.534)">
      <g id="Group_243" data-name="Group 243" transform="translate(0 0.498)">
        <path id="Path_4940" data-name="Path 4940" d="M35.3,1.208C34.441.352,32.963.268,31.02.964a10.351,10.351,0,0,0-3.407,1.952L22.229,8.3,4.509,5.516,0,10.025,14.733,15.8,10,20.526l-6.714.393L.069,24.139l7.286,3.516L5.314,29.7,6.808,31.19l2.038-2.038,3.519,7.283,3.219-3.219.393-6.714,4.81-4.81,5.77,14.73,4.509-4.509L28.283,14.2l5.3-5.3A10.349,10.349,0,0,0,35.54,5.483C36.236,3.542,36.152,2.063,35.3,1.208ZM3.777,9.236,5.243,7.77l15.139,2.378-4.018,4.018ZM28.812,31.179l-1.466,1.466L22.418,20.061l4.018-4.018ZM33.551,4.771A8.581,8.581,0,0,1,32.094,7.4L13.916,25.576l-.393,6.714-.548.548-2.546-5.269,1.836-1.836-1.494-1.494L8.938,26.073,3.667,23.529l.548-.548,6.714-.393L29.107,4.41a8.584,8.584,0,0,1,2.626-1.457c1.278-.458,1.956-.365,2.07-.252S34.009,3.492,33.551,4.771Z" transform="translate(0 -0.498)" fill="#fff"/>
      </g>
    </g>
  </g>
</svg>
