<svg xmlns="http://www.w3.org/2000/svg" width="62" height="62" viewBox="0 0 62 62">
  <g id="Group_766" data-name="Group 766" transform="translate(-144 -393)">
    <circle id="Ellipse_68" data-name="Ellipse 68" cx="31" cy="31" r="31" transform="translate(144 393)" fill="#70cfaf"/>
    <g id="Group_274" data-name="Group 274" transform="translate(151.81 400.816)">
      <g id="Group_273" data-name="Group 273" transform="translate(0.008)">
        <path id="Path_4947" data-name="Path 4947" d="M44.381,24.5a7.344,7.344,0,0,0-4.833-2.283l-.445-.043q-.033,0-.066,0a7.1,7.1,0,0,0-2.112.334L36.4,21.98a2.62,2.62,0,0,0-.577-2.825l-.089-.09a2.624,2.624,0,0,0-1.984-.766,2.624,2.624,0,0,0-.765-1.983l-.087-.087a2.626,2.626,0,0,0-1.984-.766,2.624,2.624,0,0,0-.765-1.983l-.087-.087a2.626,2.626,0,0,0-1.983-.765,2.626,2.626,0,0,0-.768-1.986l-.085-.084a2.619,2.619,0,0,0-2.83-.58l-.525-.525A7.057,7.057,0,0,0,24.2,7.339q0-.031,0-.062l-.041-.447a7.33,7.33,0,0,0-.852-2.962.679.679,0,0,0-1.2.64,5.982,5.982,0,0,1,.7,2.423v.015l.039.423A5.968,5.968,0,0,1,22.451,9.4a.679.679,0,0,0,.158.713l.673.672-2.958,2.959-.672-.672a.679.679,0,0,0-.716-.157,5.893,5.893,0,0,1-2.037.39l-.41-.041-.02,0A5.976,5.976,0,0,1,10.9,7.339,5.8,5.8,0,0,1,11.137,5.7l3.683,3.675a3.015,3.015,0,0,0,2.046.853,2.874,2.874,0,0,0,2.043-.842,2.9,2.9,0,0,0,.675-3.054c0-.013-.01-.026-.015-.038a3.023,3.023,0,0,0-.659-1.008L15.23,1.6a5.637,5.637,0,0,1,1.635-.243,5.862,5.862,0,0,1,3.7,1.295.679.679,0,1,0,.848-1.061A7.207,7.207,0,0,0,16.865,0a7.125,7.125,0,0,0-3.144.74.679.679,0,0,0-.183,1.091l4.415,4.417.011.011a1.617,1.617,0,0,1,.346.546,1.545,1.545,0,0,1-.357,1.612,1.529,1.529,0,0,1-1.088.45A1.668,1.668,0,0,1,15.8,8.429l-.012-.013L11.358,4a.679.679,0,0,0-1.093.189,7.286,7.286,0,0,0,5.089,10.289,3.442,3.442,0,0,0,.591,3.647L14.368,19.7a3.114,3.114,0,0,0-.128,4.271l-2.446,2.446-1.462-1.462a.679.679,0,0,0-.96,0L5.721,28.6l0,.005-5.51,5.51a.679.679,0,0,0,0,.961l4.235,4.235a.679.679,0,1,0,.96-.961L1.648,34.6l5.087-5.087L16.862,39.64l-5.087,5.087-4.48-4.48a.679.679,0,1,0-.96.961l4.96,4.96a.679.679,0,0,0,.96,0l5.506-5.506.009-.008L21.42,37a.679.679,0,0,0,0-.961l-1.113-1.113L22.8,32.435a3.094,3.094,0,0,0,3.5-.113.679.679,0,0,0-.8-1.1,1.746,1.746,0,0,1-2.275-.179.679.679,0,0,0-.961,0l-2.922,2.923-6.591-6.591,2.922-2.922a.679.679,0,0,0,0-.96l-.349-.35a1.756,1.756,0,0,1,0-2.484L17.38,18.61l0,0,0,0L20.8,15.19l0,0,0,0,3.665-3.666a1.221,1.221,0,0,1,.178-.148,1.262,1.262,0,0,1,1.613.15l.085.085a1.263,1.263,0,0,1,0,1.786l0,0-4.044,4.044a.679.679,0,0,0,.96.961l4.04-4.04,0,0a1.264,1.264,0,0,1,1.789,0l.087.087a1.265,1.265,0,0,1,.145,1.615,1.194,1.194,0,0,1-.145.174h0l-4.044,4.044a.679.679,0,0,0,.96.961l4.043-4.043h0a1.22,1.22,0,0,1,.178-.148,1.264,1.264,0,0,1,1.611.148l.087.087a1.265,1.265,0,0,1,.145,1.615,1.2,1.2,0,0,1-.145.174l0,0-4.041,4.041a.679.679,0,0,0,.96.961l4.044-4.044,0,0a1.22,1.22,0,0,1,.176-.146,1.262,1.262,0,0,1,1.608.145l.089.09a1.266,1.266,0,0,1,0,1.789l-7.521,7.521a.679.679,0,0,0,.96.961l3.371-3.371.374.374a7.109,7.109,0,0,0-.332,2.125c0,.021,0,.042,0,.064l.041.435a7.347,7.347,0,0,0,2.282,4.839,7.248,7.248,0,0,0,8.148,1.262.679.679,0,0,0,.19-1.093l-4.417-4.428-.009-.009a1.341,1.341,0,0,1-.326-.523l-.005-.014a1.507,1.507,0,0,1,.338-1.621,1.528,1.528,0,0,1,1.082-.452,1.354,1.354,0,0,1,.512.1l.016.006a1.417,1.417,0,0,1,.548.331l.012.012,4.418,4.417a.679.679,0,0,0,1.091-.184,7.149,7.149,0,0,0,.738-3.143A7.259,7.259,0,0,0,44.381,24.5ZM18.866,35.41h0l1.112,1.112L17.822,38.68,7.7,28.552,9.852,26.4l1.462,1.462h0ZM16.908,17.16a2.07,2.07,0,0,1-.109-2.5c.022,0,.044,0,.066,0a7.167,7.167,0,0,0,2.124-.332l.374.374ZM44.772,31.145l-3.681-3.68a2.75,2.75,0,0,0-1.039-.657,2.707,2.707,0,0,0-1.015-.2,2.882,2.882,0,0,0-2.7,3.9A2.7,2.7,0,0,0,37,31.553l3.677,3.686a5.781,5.781,0,0,1-1.64.239,5.978,5.978,0,0,1-5.927-5.571c0-.006,0-.011,0-.017l-.039-.41a5.874,5.874,0,0,1,.389-2.036.679.679,0,0,0-.155-.719l-.674-.674,2.96-2.96.672.672a.679.679,0,0,0,.711.159A6.05,6.05,0,0,1,39,23.531l.421.041.019,0a5.984,5.984,0,0,1,5.57,5.938A5.65,5.65,0,0,1,44.772,31.145Z" transform="translate(-0.008)" fill="#fff"/>
      </g>
    </g>
  </g>
</svg>
