<svg xmlns="http://www.w3.org/2000/svg" width="62" height="62" viewBox="0 0 62 62">
  <g id="Group_765" data-name="Group 765" transform="translate(-1284 -263)">
    <circle id="Ellipse_71" data-name="Ellipse 71" cx="31" cy="31" r="31" transform="translate(1284 263)" fill="#43a2cc"/>
    <path id="Path_4946" data-name="Path 4946" d="M84,4.973,79.924,2.622a.9.9,0,0,0-1.235.331L77.243,5.458h0l-3.866,6.7V4.52a1.267,1.267,0,0,0-1.085-1.251v-2A1.267,1.267,0,0,0,71.026,0h-2.17a1.267,1.267,0,0,0-1.266,1.266v2A1.267,1.267,0,0,0,66.506,4.52V7.052a.542.542,0,0,0,.542.542h5.244v9.258h-4.7V9.583a.542.542,0,1,0-1.085,0v2.992L61.242,3.458a1.266,1.266,0,0,0-1.729-.463L56.068,4.984a1.267,1.267,0,0,0-.463,1.729l5.857,10.144a1.626,1.626,0,0,0-1.487,1.866l2.471,16.309a2.337,2.337,0,0,0,2.324,2H75.113a2.337,2.337,0,0,0,2.324-2l2.471-16.309A1.627,1.627,0,0,0,78.3,16.852h-.118L84.326,6.207A.905.905,0,0,0,84,4.973ZM68.857,1.085h2.17a.181.181,0,0,1,.181.181V3.255H68.676V1.266A.181.181,0,0,1,68.857,1.085ZM67.591,6.509V4.52a.181.181,0,0,1,.181-.181h4.339a.181.181,0,0,1,.181.181V6.509Zm-1.085,8.233v2.11h-.663l-3.617-6.265,1.409-.814,2.853,4.942C66.494,14.724,66.5,14.733,66.506,14.742Zm-3.795,2.11-2.834-4.909,1.409-.814,3.3,5.723Zm-3.919-6.788,3.758-2.17.542.939L59.335,11Zm-2.182-4.14,3.445-1.989A.173.173,0,0,1,60.3,4l1.705,2.954L58.25,9.124,56.545,6.17A.179.179,0,0,1,56.611,5.923ZM76.364,34.869a1.258,1.258,0,0,1-1.251,1.076H64.77a1.258,1.258,0,0,1-1.251-1.076L61.775,23.361H73.988a.542.542,0,0,0,0-1.085H61.611l-.164-1.085h16.99l-.164,1.085H76.519a.542.542,0,1,0,0,1.085h1.589ZM78.835,18.56,78.6,20.106H61.282l-.234-1.546a.545.545,0,0,1,.536-.624H78.3a.511.511,0,0,1,.536.624Zm-1.907-1.709H73.377V15.127l1.062.613a.542.542,0,1,0,.542-.939l-1.409-.814,1.085-1.879,1.409.814a.542.542,0,1,0,.542-.939L75.2,11.168l1.085-1.879,1.409.814a.542.542,0,1,0,.542-.939L76.826,8.35l1.085-1.879,1.409.814a.542.542,0,1,0,.542-.939l-1.409-.814,1.085-1.879L83.3,5.822Z" transform="translate(1245.059 275.485)" fill="#fff"/>
  </g>
</svg>
