<svg xmlns="http://www.w3.org/2000/svg" width="62" height="62" viewBox="0 0 62 62">
  <g id="Group_768" data-name="Group 768" transform="translate(-904 -393)">
    <circle id="Ellipse_74" data-name="Ellipse 74" cx="31" cy="31" r="31" transform="translate(904 393)" fill="#fbbe82"/>
    <g id="Group_277" data-name="Group 277" transform="translate(915.964 403)">
      <g id="Group_276" data-name="Group 276" transform="translate(0.019 -0.001)">
        <path id="Path_4960" data-name="Path 4960" d="M387.332,351.8l-.884-.366a.813.813,0,0,1,.623-1.5l.442.183a.82.82,0,1,0,.628-1.516l-.442-.183a2.464,2.464,0,0,0-.3-.1v-.449a.82.82,0,0,0-1.641,0v.582a2.452,2.452,0,0,0,.064,4.5l.884.366a.813.813,0,0,1-.623,1.5l-.442-.183a.82.82,0,0,0-.628,1.516l.442.183a2.493,2.493,0,0,0,.3.1v.449a.82.82,0,0,0,1.641,0v-.582a2.452,2.452,0,0,0-.064-4.5Z" transform="translate(-352.781 -318.583)" fill="#fff"/>
        <path id="Path_4961" data-name="Path 4961" d="M35.454,25.757V4.1A4.122,4.122,0,0,0,31.343,0H4.127A4.106,4.106,0,0,0,.019,4.1v1.64a.82.82,0,0,0,.82.82H6.581V36.256a4.106,4.106,0,0,0,4.1,4.1H28.9a8.2,8.2,0,1,0,6.557-14.6ZM6.581,4.922H1.659V4.1A2.464,2.464,0,0,1,4.118,1.641h.008A2.464,2.464,0,0,1,6.581,4.1Zm6.562,29.693v1.64a2.461,2.461,0,0,1-4.921,0V4.1A4.08,4.08,0,0,0,7.4,1.641H31.348a2.422,2.422,0,0,1,1.734.712A2.449,2.449,0,0,1,33.813,4.1v21.49a8.212,8.212,0,0,0-8.2,8.2H13.963a.821.821,0,0,0-.82.82Zm1.641,1.64v-.82H25.776a8.17,8.17,0,0,0,1.48,3.281H13.961a4.08,4.08,0,0,0,.822-2.461Zm19.03,4.1A6.569,6.569,0,0,1,27.251,33.8c.33-8.693,12.8-8.691,13.124,0A6.569,6.569,0,0,1,33.813,40.357Z" transform="translate(-0.019 0.001)" fill="#fff"/>
        <path id="Path_4962" data-name="Path 4962" d="M130.83,95.752h4.1a.82.82,0,0,0,.82-.82v-4.1a.82.82,0,0,0-.82-.82h-4.1a.82.82,0,0,0-.82.82v4.1A.82.82,0,0,0,130.83,95.752Zm.82-4.1h2.461v2.461H131.65Z" transform="translate(-119.347 -82.626)" fill="#fff"/>
        <path id="Path_4963" data-name="Path 4963" d="M130.83,195.744h4.1a.82.82,0,0,0,.82-.82v-4.1a.82.82,0,0,0-.82-.82h-4.1a.82.82,0,0,0-.82.82v4.1A.82.82,0,0,0,130.83,195.744Zm.82-4.1h2.461V194.1H131.65Z" transform="translate(-119.347 -174.416)" fill="#fff"/>
        <path id="Path_4964" data-name="Path 4964" d="M135.752,294.913v-4.1a.82.82,0,0,0-.82-.82h-4.1a.82.82,0,0,0-.82.82v4.1a.82.82,0,0,0,.82.82h4.1A.82.82,0,0,0,135.752,294.913Zm-1.64-.82H131.65v-2.461h2.461Z" transform="translate(-119.347 -266.203)" fill="#fff"/>
        <path id="Path_4965" data-name="Path 4965" d="M230.88,96.649h10.827a.82.82,0,0,0,0-1.64H230.88A.82.82,0,0,0,230.88,96.649Z" transform="translate(-211.194 -87.215)" fill="#fff"/>
        <path id="Path_4966" data-name="Path 4966" d="M283.008,195h-7.136a.82.82,0,0,0,0,1.641h7.136A.82.82,0,0,0,283.008,195Z" transform="translate(-252.495 -179.004)" fill="#fff"/>
        <path id="Path_4967" data-name="Path 4967" d="M238.836,294.992H230.88a.82.82,0,0,0,0,1.64h7.956A.82.82,0,0,0,238.836,294.992Z" transform="translate(-211.194 -270.793)" fill="#fff"/>
        <path id="Path_4968" data-name="Path 4968" d="M230.88,136.647h7.956a.82.82,0,0,0,0-1.641H230.88A.82.82,0,0,0,230.88,136.647Z" transform="translate(-211.194 -123.931)" fill="#fff"/>
        <path id="Path_4969" data-name="Path 4969" d="M230.88,236.638h4.635a.82.82,0,0,0,0-1.64H230.88A.82.82,0,0,0,230.88,236.638Z" transform="translate(-211.194 -215.721)" fill="#fff"/>
        <path id="Path_4970" data-name="Path 4970" d="M235.514,334.989H230.88a.82.82,0,0,0,0,1.64h4.635A.82.82,0,0,0,235.514,334.989Z" transform="translate(-211.194 -307.509)" fill="#fff"/>
        <path id="Path_4971" data-name="Path 4971" d="M230.877,196.641a.82.82,0,0,0,0-1.641h0A.82.82,0,0,0,230.877,196.641Z" transform="translate(-211.19 -179.004)" fill="#fff"/>
      </g>
    </g>
  </g>
</svg>
