<svg xmlns="http://www.w3.org/2000/svg" width="62" height="62" viewBox="0 0 62 62">
  <g id="Group_770" data-name="Group 770" transform="translate(-144 -523)">
    <circle id="Ellipse_66" data-name="Ellipse 66" cx="31" cy="31" r="31" transform="translate(144 523)" fill="#9bc9ed"/>
    <g id="Group_278" data-name="Group 278" transform="translate(134.277 534.264)">
      <path id="Path_4973" data-name="Path 4973" d="M222.564,211.737h-8.416a3.3,3.3,0,0,1-1.986-.668l-1.228-.929a1.983,1.983,0,0,0-1.184-.4L208,209.731V198.579h3.947a3.293,3.293,0,0,0,3.289-3.289v-1.974A1.316,1.316,0,0,1,216.553,192h.658a3.293,3.293,0,0,1,3.289,3.289v3.183l.253.76a5.887,5.887,0,0,1-1.43,6.059l-.987.987-.93-.93.987-.987a4.579,4.579,0,0,0,1.112-4.713l-.321-.963v-3.4a1.974,1.974,0,0,0-1.974-1.974h-.658v1.974a4.61,4.61,0,0,1-4.605,4.605h-2.632v8.527h.442a3.306,3.306,0,0,1,1.974.668l1.227.929a1.985,1.985,0,0,0,1.189.4h8.416a3.3,3.3,0,0,0,3.217-2.608l1.152-5.442a1.973,1.973,0,0,0-1.909-2.476h-3.209v-1.316h3.209a3.289,3.289,0,0,1,3.191,4.087l-1.147,5.419A4.626,4.626,0,0,1,222.564,211.737Z" transform="translate(-168.868 -176.211)" fill="#fff"/>
      <path id="Path_4974" data-name="Path 4974" d="M51.631,15.162V0H32.28L24,8.28V39.474H51.631V36.807H50.316v1.351h-25V9.21H33.21V1.316H50.316V15.162ZM26.246,7.895l5.649-5.649V7.895Z" fill="#fff"/>
      <path id="Path_4975" data-name="Path 4975" d="M168,64h1.316v1.316H168Z" transform="translate(-132.158 -58.737)" fill="#fff"/>
      <path id="Path_4976" data-name="Path 4976" d="M200,64h9.211v1.316H200Z" transform="translate(-161.526 -58.737)" fill="#fff"/>
      <path id="Path_4977" data-name="Path 4977" d="M168,96h1.316v1.316H168Z" transform="translate(-132.158 -88.105)" fill="#fff"/>
      <path id="Path_4978" data-name="Path 4978" d="M200,96h9.211v1.316H200Z" transform="translate(-161.526 -88.105)" fill="#fff"/>
      <path id="Path_4979" data-name="Path 4979" d="M89.105,135.895H72V128H91.737v1.316H73.316v5.263H89.105Z" transform="translate(-44.053 -117.474)" fill="#fff"/>
      <path id="Path_4980" data-name="Path 4980" d="M72,240h1.316v1.316H72Z" transform="translate(-44.053 -220.263)" fill="#fff"/>
      <path id="Path_4981" data-name="Path 4981" d="M104,240h10.526v1.316H104Z" transform="translate(-73.421 -220.263)" fill="#fff"/>
    </g>
  </g>
</svg>
