<svg xmlns="http://www.w3.org/2000/svg" width="62" height="62" viewBox="0 0 62 62">
  <g id="Group_769" data-name="Group 769" transform="translate(-1284 -393)">
    <circle id="Ellipse_73" data-name="Ellipse 73" cx="31" cy="31" r="31" transform="translate(1284 393)" fill="#70cfaf"/>
    <path id="Path_4972" data-name="Path 4972" d="M-111.858-12.5V-29.357a1.089,1.089,0,0,0-1.089-1.089h-29.171a1.089,1.089,0,0,0-1.089,1.089v18.2a3.3,3.3,0,0,0-1.493.618,3.3,3.3,0,0,0-.571,4.689l4.9,5.945c3.036,3.553,6.26,3.988,11.054,3.988a35.7,35.7,0,0,0,9.538-.8l3.491-.835a3.046,3.046,0,0,0,2.475,1.3h1.72a3.189,3.189,0,0,0,3.1-3.265V-9.248A3.2,3.2,0,0,0-111.858-12.5Zm-4.894,2.24L-118.2-11a8.626,8.626,0,0,0-7.566-.122c-.661.26-2.1,1.132-2.851,1.1h-5.034a3.032,3.032,0,0,0-3.028,3.028V-6.2l-.028-.029-3.595-3.9a3.317,3.317,0,0,0-.724-.592v-10.8h8.91v3.991a1.089,1.089,0,0,0,1.089,1.089h6.87a1.089,1.089,0,0,0,1.089-1.089v-3.991h9.035V-12.5a3.14,3.14,0,0,0-2.716,2.24Zm-13.189-11.259h4.693v2.9h-4.693Zm15.905-2.178h-9.035v-4.569h9.035V-23.7Zm-11.213-4.569V-23.7h-4.693v-4.569Zm-6.87,0V-23.7h-8.91v-4.569Zm11.84,29.432a34.637,34.637,0,0,1-8.994.728c-4.5,0-6.675-.073-9.414-3.185l-4.9-5.945a1.1,1.1,0,0,1,1.684-1.414l3.595,3.9a4.943,4.943,0,0,0,3.619,1.587h9.967a1.089,1.089,0,0,0,1.089-1.089,1.089,1.089,0,0,0-1.089-1.089H-134.5V-6.991a.852.852,0,0,1,.851-.851h5.034c1.134.081,2.771-.866,3.769-1.306a6.459,6.459,0,0,1,5.664.09l2.28,1.158V.357Zm9.113-.679a1.016,1.016,0,0,1-.921,1.087h-1.72a1.016,1.016,0,0,1-.921-1.087V-9.248a1.016,1.016,0,0,1,.921-1.087h1.72a1.016,1.016,0,0,1,.921,1.087Z" transform="translate(1442.494 437.183)" fill="#fff"/>
  </g>
</svg>
