<svg xmlns="http://www.w3.org/2000/svg" width="62" height="62" viewBox="0 0 62 62">
  <g id="Group_764" data-name="Group 764" transform="translate(-904 -263)">
    <circle id="Ellipse_72" data-name="Ellipse 72" cx="31" cy="31" r="31" transform="translate(904 263)" fill="#e4a7eb"/>
    <g id="Group_271" data-name="Group 271" transform="translate(914.393 205.982)">
      <g id="Group_246" data-name="Group 246" transform="translate(5.762 94.86)">
        <g id="Group_245" data-name="Group 245">
          <path id="Path_4941" data-name="Path 4941" d="M72.588,337.067a4.321,4.321,0,1,0,4.321,4.321A4.326,4.326,0,0,0,72.588,337.067Zm0,7.2a2.881,2.881,0,1,1,2.881-2.881A2.884,2.884,0,0,1,72.588,344.269Z" transform="translate(-68.267 -337.067)" fill="#fff"/>
        </g>
      </g>
      <g id="Group_248" data-name="Group 248" transform="translate(30.25 94.86)">
        <g id="Group_247" data-name="Group 247">
          <path id="Path_4942" data-name="Path 4942" d="M362.721,337.067a4.321,4.321,0,1,0,4.321,4.321A4.326,4.326,0,0,0,362.721,337.067Zm0,7.2a2.881,2.881,0,1,1,2.881-2.881A2.884,2.884,0,0,1,362.721,344.269Z" transform="translate(-358.4 -337.067)" fill="#fff"/>
        </g>
      </g>
      <g id="Group_250" data-name="Group 250" transform="translate(27.369 80.456)">
        <g id="Group_249" data-name="Group 249" transform="translate(0 0)">
          <path id="Path_4943" data-name="Path 4943" d="M340,176.814l-6.482-10.083a.72.72,0,0,0-.606-.331h-7.922a.72.72,0,0,0-.72.72v18.006a.72.72,0,0,0,.72.72h2.881v-1.44h-2.161V167.84h6.809l6.155,9.575v6.991h-3.6v1.44h4.321a.72.72,0,0,0,.72-.72V177.2A.719.719,0,0,0,340,176.814Z" transform="translate(-324.267 -166.4)" fill="#fff"/>
        </g>
      </g>
      <g id="Group_252" data-name="Group 252" transform="translate(30.25 83.336)">
        <g id="Group_251" data-name="Group 251" transform="translate(0 0)">
          <path id="Path_4944" data-name="Path 4944" d="M359.841,207.015v-5.042H365.6v-1.44h-6.482a.72.72,0,0,0-.72.72v6.482a.72.72,0,0,0,.72.72h10.8v-1.44H359.841Z" transform="translate(-358.401 -200.533)" fill="#fff"/>
        </g>
      </g>
      <g id="Group_254" data-name="Group 254" transform="translate(0 75.414)">
        <g id="Group_253" data-name="Group 253" transform="translate(0 0)">
          <path id="Path_4945" data-name="Path 4945" d="M28.089,106.667H.72a.72.72,0,0,0-.72.72v23.047a.72.72,0,0,0,.72.72H6.482v-1.44H1.44V108.107H27.369v21.607H13.684v1.44h14.4a.72.72,0,0,0,.72-.72V107.387A.72.72,0,0,0,28.089,106.667Z" transform="translate(0 -106.667)" fill="#fff"/>
        </g>
      </g>
      <g id="Group_256" data-name="Group 256" transform="translate(0.72 95.58)">
        <g id="Group_255" data-name="Group 255">
          <rect id="Rectangle_265" data-name="Rectangle 265" width="4.321" height="1.44" fill="#fff"/>
        </g>
      </g>
      <g id="Group_258" data-name="Group 258" transform="translate(15.125 95.58)">
        <g id="Group_257" data-name="Group 257">
          <rect id="Rectangle_266" data-name="Rectangle 266" width="12.244" height="1.44" fill="#fff"/>
        </g>
      </g>
      <g id="Group_260" data-name="Group 260" transform="translate(39.613 95.58)">
        <g id="Group_259" data-name="Group 259">
          <rect id="Rectangle_267" data-name="Rectangle 267" width="2.881" height="1.44" fill="#fff"/>
        </g>
      </g>
      <g id="Group_262" data-name="Group 262" transform="translate(2.881 78.295)">
        <g id="Group_261" data-name="Group 261" transform="translate(0 0)">
          <rect id="Rectangle_268" data-name="Rectangle 268" width="25.208" height="1.44" fill="#fff"/>
        </g>
      </g>
      <g id="Group_264" data-name="Group 264" transform="translate(9.363 98.461)">
        <g id="Group_263" data-name="Group 263">
          <rect id="Rectangle_269" data-name="Rectangle 269" width="1.44" height="1.44" fill="#fff"/>
        </g>
      </g>
      <g id="Group_266" data-name="Group 266" transform="translate(33.851 98.461)">
        <g id="Group_265" data-name="Group 265">
          <rect id="Rectangle_270" data-name="Rectangle 270" width="1.44" height="1.44" fill="#fff"/>
        </g>
      </g>
      <g id="Group_268" data-name="Group 268" transform="translate(2.881 72.533)">
        <g id="Group_267" data-name="Group 267">
          <rect id="Rectangle_271" data-name="Rectangle 271" width="10.083" height="1.44" fill="#fff"/>
        </g>
      </g>
      <g id="Group_270" data-name="Group 270" transform="translate(0 72.533)">
        <g id="Group_269" data-name="Group 269">
          <rect id="Rectangle_272" data-name="Rectangle 272" width="1.44" height="1.44" fill="#fff"/>
        </g>
      </g>
    </g>
  </g>
</svg>
