<svg xmlns="http://www.w3.org/2000/svg" width="62" height="62" viewBox="0 0 62 62">
  <g id="Group_771" data-name="Group 771" transform="translate(-524 -523)">
    <circle id="Ellipse_65" data-name="Ellipse 65" cx="31" cy="31" r="31" transform="translate(524 523)" fill="#fbbe82"/>
    <g id="Group_311" data-name="Group 311" transform="translate(530.558 449.88)">
      <g id="Group_280" data-name="Group 280" transform="translate(12.576 94.793)">
        <g id="Group_279" data-name="Group 279" transform="translate(0 0)">
          <path id="Path_4982" data-name="Path 4982" d="M140.225,156.146l-3.392-3.392a2.527,2.527,0,0,0-1.8-.745H124.566a2.527,2.527,0,0,0-1.8.745l-3.392,3.392a2.544,2.544,0,0,0,1.8,4.343h17.251a2.544,2.544,0,0,0,1.8-4.343Zm-18.058,2.647h-.993a.848.848,0,0,1-.6-1.448l1.6-1.594Zm8.481,0h-6.785v-4.737l.1-.1a.843.843,0,0,1,.6-.248h6.081Zm8.565-.523a.833.833,0,0,1-.784.523h-6.086V153.7h2.689a.843.843,0,0,1,.6.248l3.392,3.392A.832.832,0,0,1,139.213,158.269Z" transform="translate(-118.629 -152.008)" fill="#fff"/>
        </g>
      </g>
      <g id="Group_282" data-name="Group 282" transform="translate(0 88.008)">
        <g id="Group_281" data-name="Group 281" transform="translate(0 0)">
          <path id="Path_4983" data-name="Path 4983" d="M46.644,101.577H42.961a2.563,2.563,0,0,1-1.8-.745l-8.19-8.19a4.212,4.212,0,0,0-3-1.242H27.986V88.856a.848.848,0,0,0-.848-.848H23.746a.848.848,0,0,0-.848.848V91.4H17.519a4.212,4.212,0,0,0-3,1.242L6.33,100.832a2.563,2.563,0,0,1-1.8.745H4.24A4.245,4.245,0,0,0,0,105.817v5.088a4.245,4.245,0,0,0,4.24,4.24h.916a5.929,5.929,0,0,0,11.737,0h17.1a5.929,5.929,0,0,0,11.737,0h.916a4.245,4.245,0,0,0,4.24-4.24v-5.088A4.245,4.245,0,0,0,46.644,101.577Zm.848,1.852c.02.008.042.012.062.02a2.526,2.526,0,0,1,.326.159,1.458,1.458,0,0,1,.149.085,2.56,2.56,0,0,1,.743.743c.031.047.053.1.085.149a2.519,2.519,0,0,1,.159.326c.008.02.012.042.02.062H47.492ZM24.594,89.7h1.7v1.7h-1.7Zm-22.722,15.2a2.521,2.521,0,0,1,.159-.327,1.46,1.46,0,0,1,.085-.149,2.563,2.563,0,0,1,.743-.743c.047-.031.1-.053.149-.085a2.521,2.521,0,0,1,.327-.159c.02-.008.042-.012.062-.02v1.543H1.852C1.86,104.949,1.864,104.927,1.872,104.907Zm9.153,13.631a4.24,4.24,0,1,1,4.24-4.24A4.24,4.24,0,0,1,11.025,118.538Zm28.834,0a4.24,4.24,0,1,1,4.24-4.24A4.24,4.24,0,0,1,39.859,118.538Zm9.329-8.481h-1.7v1.7h1.54a2.544,2.544,0,0,1-2.388,1.7h-.908c-.009-.065-.025-.128-.036-.193-.014-.085-.029-.162-.046-.242-.024-.107-.053-.212-.085-.317-.021-.075-.041-.151-.064-.226-.036-.109-.076-.215-.118-.321-.026-.067-.049-.135-.077-.2-.051-.119-.109-.233-.17-.348-.025-.049-.047-.1-.074-.149q-.132-.24-.283-.466c-.025-.037-.054-.072-.081-.109-.08-.112-.16-.223-.247-.33-.044-.053-.092-.1-.137-.155-.075-.085-.149-.17-.229-.254-.053-.054-.109-.1-.164-.156-.078-.074-.155-.147-.237-.215-.059-.051-.121-.1-.183-.147-.085-.064-.165-.127-.254-.187-.065-.046-.132-.089-.2-.132q-.131-.085-.265-.161c-.07-.04-.141-.079-.212-.116-.092-.048-.187-.093-.282-.137-.073-.033-.145-.065-.22-.1-.1-.041-.2-.076-.3-.111-.074-.025-.148-.052-.223-.074-.109-.032-.219-.059-.329-.085-.073-.017-.144-.036-.218-.051-.124-.025-.254-.042-.377-.058-.063-.008-.125-.02-.188-.026-.183-.015-.377-.026-.573-.026s-.39.011-.581.03c-.064.006-.126.018-.188.026-.126.016-.254.033-.377.058-.074.014-.145.034-.218.051-.111.026-.221.053-.329.085-.075.022-.148.048-.223.074-.1.035-.2.071-.3.111-.075.03-.147.063-.22.1-.1.043-.19.085-.282.137-.072.037-.142.075-.212.116q-.135.077-.265.161c-.067.043-.134.085-.2.132-.085.06-.17.123-.254.187-.062.048-.124.1-.183.147-.085.07-.159.142-.237.215-.055.052-.111.1-.164.156-.08.085-.153.17-.229.254-.046.052-.093.1-.137.155-.085.106-.17.217-.247.33-.026.037-.055.071-.081.109q-.152.226-.283.466c-.026.048-.048.1-.074.149-.059.114-.116.229-.17.348-.028.065-.052.133-.077.2-.042.106-.085.212-.118.321-.024.075-.043.15-.064.226-.03.105-.058.209-.085.317-.018.08-.031.16-.046.242-.011.064-.027.127-.036.193H16.9c-.009-.065-.025-.128-.036-.193-.014-.085-.029-.162-.046-.242-.024-.107-.053-.212-.085-.317-.021-.075-.041-.151-.064-.226-.036-.109-.076-.215-.118-.321-.026-.067-.049-.135-.077-.2-.051-.119-.109-.233-.17-.348-.025-.049-.047-.1-.074-.149q-.132-.24-.283-.466c-.025-.037-.054-.072-.081-.109-.08-.112-.16-.223-.247-.33-.044-.053-.092-.1-.137-.155-.075-.085-.149-.17-.229-.254-.053-.054-.109-.1-.164-.156-.078-.074-.155-.147-.237-.215-.059-.051-.121-.1-.183-.147-.085-.064-.165-.127-.254-.187-.065-.046-.132-.089-.2-.132q-.131-.085-.265-.161c-.07-.04-.141-.079-.212-.116-.092-.048-.187-.093-.282-.137-.073-.033-.145-.065-.22-.1-.1-.041-.2-.076-.3-.111-.074-.025-.148-.052-.223-.074-.109-.032-.219-.059-.329-.085-.073-.017-.144-.036-.218-.051-.124-.025-.254-.042-.377-.058-.063-.008-.125-.02-.188-.026a5.7,5.7,0,0,0-.573-.03c-.2,0-.39.011-.581.03-.064.006-.126.018-.188.026-.126.016-.254.033-.377.058-.074.014-.145.034-.218.051-.111.026-.221.053-.329.085-.075.022-.148.048-.223.074-.1.035-.2.071-.3.111-.075.03-.147.063-.22.1-.1.043-.19.085-.282.137-.072.037-.142.075-.212.116q-.135.077-.265.161c-.067.043-.134.085-.2.132-.085.06-.17.123-.254.187-.062.048-.124.1-.183.147-.085.07-.159.142-.237.215-.055.052-.111.1-.164.156-.08.085-.154.17-.229.254-.046.052-.093.1-.137.155-.085.106-.17.217-.247.33-.026.037-.055.071-.081.109q-.152.226-.283.466c-.026.048-.048.1-.074.149-.059.114-.116.229-.17.348-.028.065-.052.133-.077.2-.042.106-.085.212-.118.321-.024.075-.043.15-.064.226-.03.105-.058.209-.085.317-.018.08-.031.16-.046.242-.011.064-.027.127-.036.193h-.9A2.544,2.544,0,0,1,1.7,110.909v-4.244H4.24a.848.848,0,0,0,.848-.848v-2.6a4.194,4.194,0,0,0,2.441-1.187l8.19-8.19a2.563,2.563,0,0,1,1.8-.745H29.973a2.563,2.563,0,0,1,1.8.745l8.19,8.19a4.212,4.212,0,0,0,3,1.242H45.8v2.544a.848.848,0,0,0,.848.848h2.544Z" transform="translate(0 -88.008)" fill="#fff"/>
        </g>
      </g>
      <g id="Group_284" data-name="Group 284" transform="translate(8.481 111.754)">
        <g id="Group_283" data-name="Group 283">
          <path id="Path_4984" data-name="Path 4984" d="M82.544,312.008a2.544,2.544,0,1,0,2.544,2.544A2.544,2.544,0,0,0,82.544,312.008Zm0,3.392a.848.848,0,1,1,.848-.848A.848.848,0,0,1,82.544,315.4Z" transform="translate(-80 -312.008)" fill="#fff"/>
        </g>
      </g>
      <g id="Group_286" data-name="Group 286" transform="translate(37.315 111.754)">
        <g id="Group_285" data-name="Group 285">
          <path id="Path_4985" data-name="Path 4985" d="M354.544,312.008a2.544,2.544,0,1,0,2.544,2.544A2.544,2.544,0,0,0,354.544,312.008Zm0,3.392a.848.848,0,1,1,.848-.848A.848.848,0,0,1,354.544,315.4Z" transform="translate(-352 -312.008)" fill="#fff"/>
        </g>
      </g>
      <g id="Group_288" data-name="Group 288" transform="translate(19 109.764)">
        <g id="Group_287" data-name="Group 287" transform="translate(0 0)">
          <rect id="Rectangle_273" data-name="Rectangle 273" width="1" height="1" transform="translate(0.442 0.357)" fill="#fff"/>
        </g>
      </g>
      <g id="Group_290" data-name="Group 290" transform="translate(20.61 108.153)">
        <g id="Group_289" data-name="Group 289" transform="translate(0 0)">
          <rect id="Rectangle_274" data-name="Rectangle 274" width="2" height="2" transform="translate(-0.168 -0.033)" fill="#fff"/>
        </g>
      </g>
      <g id="Group_292" data-name="Group 292" transform="translate(22.221 109.764)">
        <g id="Group_291" data-name="Group 291" transform="translate(0 0)">
          <rect id="Rectangle_275" data-name="Rectangle 275" width="1" height="1" transform="translate(0.221 0.357)" fill="#fff"/>
        </g>
      </g>
      <g id="Group_294" data-name="Group 294" transform="translate(23.831 108.153)">
        <g id="Group_293" data-name="Group 293" transform="translate(0 0)">
          <rect id="Rectangle_276" data-name="Rectangle 276" width="2" height="2" transform="translate(-0.389 -0.033)" fill="#fff"/>
        </g>
      </g>
      <g id="Group_296" data-name="Group 296" transform="translate(25.442 109.764)">
        <g id="Group_295" data-name="Group 295" transform="translate(0 0)">
          <rect id="Rectangle_277" data-name="Rectangle 277" width="2" height="1" transform="translate(0 0.357)" fill="#fff"/>
        </g>
      </g>
      <g id="Group_298" data-name="Group 298" transform="translate(27.053 108.153)">
        <g id="Group_297" data-name="Group 297" transform="translate(0 0)">
          <rect id="Rectangle_278" data-name="Rectangle 278" width="1" height="2" transform="translate(0.389 -0.033)" fill="#fff"/>
        </g>
      </g>
      <g id="Group_300" data-name="Group 300" transform="translate(28.663 109.764)">
        <g id="Group_299" data-name="Group 299" transform="translate(0 0)">
          <rect id="Rectangle_279" data-name="Rectangle 279" width="2" height="1" transform="translate(-0.221 0.357)" fill="#fff"/>
        </g>
      </g>
      <g id="Group_302" data-name="Group 302" transform="translate(30.274 108.153)">
        <g id="Group_301" data-name="Group 301" transform="translate(0 0)">
          <rect id="Rectangle_280" data-name="Rectangle 280" width="1" height="2" transform="translate(0.168 -0.033)" fill="#fff"/>
        </g>
      </g>
      <g id="Group_304" data-name="Group 304" transform="translate(19 106.543)">
        <g id="Group_303" data-name="Group 303" transform="translate(0 0)">
          <rect id="Rectangle_281" data-name="Rectangle 281" width="1" height="2" transform="translate(0.442 -0.422)" fill="#fff"/>
        </g>
      </g>
      <g id="Group_306" data-name="Group 306" transform="translate(22.221 106.543)">
        <g id="Group_305" data-name="Group 305" transform="translate(0 0)">
          <rect id="Rectangle_282" data-name="Rectangle 282" width="1" height="2" transform="translate(0.221 -0.422)" fill="#fff"/>
        </g>
      </g>
      <g id="Group_308" data-name="Group 308" transform="translate(25.442 106.543)">
        <g id="Group_307" data-name="Group 307" transform="translate(0 0)">
          <rect id="Rectangle_283" data-name="Rectangle 283" width="2" height="2" transform="translate(0 -0.422)" fill="#fff"/>
        </g>
      </g>
      <g id="Group_310" data-name="Group 310" transform="translate(28.663 106.543)">
        <g id="Group_309" data-name="Group 309" transform="translate(0 0)">
          <rect id="Rectangle_284" data-name="Rectangle 284" width="2" height="2" transform="translate(-0.221 -0.422)" fill="#fff"/>
        </g>
      </g>
    </g>
  </g>
</svg>
