<svg xmlns="http://www.w3.org/2000/svg" width="62" height="62" viewBox="0 0 62 62">
  <g id="Group_767" data-name="Group 767" transform="translate(-524 -393)">
    <circle id="Ellipse_67" data-name="Ellipse 67" cx="31" cy="31" r="31" transform="translate(524 393)" fill="#fd96a6"/>
    <g id="Group_275" data-name="Group 275" transform="translate(531.049 405.468)">
      <path id="Path_4948" data-name="Path 4948" d="M41.843,4.611a.586.586,0,0,0-.333-.3L29.386.031a.585.585,0,0,0-.746.356L25.886,8.181h-1.2V6.194a1.753,1.753,0,0,0-2.2-1.7L8.436,8.2v.011A.576.576,0,0,0,8,8.766v24.55a1.754,1.754,0,0,0,1.754,1.754H26.12a1.754,1.754,0,0,0,1.754-1.754v-5.3l4.688,1.655a.585.585,0,0,0,.746-.357L41.869,5.058A.584.584,0,0,0,41.843,4.611ZM22.778,5.626a.585.585,0,0,1,.734.565v1.99H13.092ZM26.7,33.315a.585.585,0,0,1-.585.585H9.754a.585.585,0,0,1-.585-.585V9.35H26.12a.585.585,0,0,1,.585.585Zm4.8-21.74.748-.355.356.746L29.774,20a.586.586,0,0,0,.024.447l.608,1.273-.188.534-1.159-1.2a.584.584,0,0,0-.493-.176l-.693.088v-.783l.5-.239a.586.586,0,0,0,.3-.333l1.169-3.306Zm1.1,3.9L33.8,17.384l-.2.575-1.42-1.243Zm-4.738,2.886V16.756l.575-.024Zm.994-2.817-.994.041v-.778l1.431-.5ZM32.4,28.369l-4.525-1.6V22.148l.548-.068,1.615,1.671a.584.584,0,0,0,.421.175.547.547,0,0,0,.124-.013.584.584,0,0,0,.427-.376l.585-1.654a.583.583,0,0,0-.024-.446l-.611-1.271.8-2.265L33.474,19.4a.585.585,0,0,0,.385.145.574.574,0,0,0,.148-.019.585.585,0,0,0,.4-.37l.585-1.654a.584.584,0,0,0-.055-.5L33.11,14.063l.685-1.94a.585.585,0,0,0-.024-.447l-.713-1.491a.585.585,0,0,0-.78-.275l-1.492.713a.584.584,0,0,0-.3.333L29.8,12.9l-1.929.673V9.935a1.748,1.748,0,0,0-.838-1.489l.955-2.709L28.2,5.13l1.345-3.8L40.573,5.221Z" transform="translate(0 0)" fill="#fff"/>
      <path id="Path_4949" data-name="Path 4949" d="M405.055,108.15l.389-1.1,1,.354-.389,1.1Z" transform="translate(-368.044 -99.228)" fill="#fff"/>
      <path id="Path_4950" data-name="Path 4950" d="M295.328,69.415l.389-1.1,1,.354-.389,1.1Z" transform="translate(-266.335 -63.324)" fill="#fff"/>
      <path id="Path_4951" data-name="Path 4951" d="M377.621,98.466l.389-1.1,1,.354-.389,1.1Z" transform="translate(-342.615 -90.251)" fill="#fff"/>
      <path id="Path_4952" data-name="Path 4952" d="M322.762,79.1l.389-1.1,1,.354-.389,1.1Z" transform="translate(-291.764 -72.303)" fill="#fff"/>
      <path id="Path_4953" data-name="Path 4953" d="M350.192,88.778l.389-1.1,1,.354-.389,1.1Z" transform="translate(-317.19 -81.272)" fill="#fff"/>
      <path id="Path_4954" data-name="Path 4954" d="M66.158,160A5.845,5.845,0,1,0,72,165.845,5.845,5.845,0,0,0,66.158,160Zm4.221,3.847-.8-.175c-.351-.077-.7-.139-1.056-.192-.054-.354-.117-.707-.192-1.056l-.175-.8A4.7,4.7,0,0,1,70.379,163.847Zm-8.9,2a4.624,4.624,0,0,1,.059-.714l1.445-.322c.222-.049.445-.09.669-.128a16.009,16.009,0,0,0,0,2.328c-.224-.039-.447-.08-.669-.129l-1.445-.321A4.625,4.625,0,0,1,61.482,165.845Zm3.359-1.317a14.8,14.8,0,0,1,2.634,0,14.748,14.748,0,0,1,0,2.634,14.749,14.749,0,0,1-2.634,0A14.748,14.748,0,0,1,64.841,164.528Zm3.818.153c.224.039.447.079.669.128l1.446.322a4.221,4.221,0,0,1,0,1.427l-1.446.321c-.222.049-.445.09-.669.129A15.913,15.913,0,0,0,68.659,164.682Zm-1.788-3.454.321,1.446c.049.221.09.445.129.669a15.94,15.94,0,0,0-2.328,0c.039-.224.08-.447.129-.669l.321-1.446A4.262,4.262,0,0,1,66.871,161.228Zm-2.712.395-.175.8c-.077.351-.138.7-.192,1.056q-.531.08-1.056.191l-.8.176a4.7,4.7,0,0,1,2.22-2.218Zm-2.221,6.219.8.176c.351.077.7.138,1.056.192q.08.531.192,1.056l.176.8a4.7,4.7,0,0,1-2.221-2.218Zm3.507,2.617-.321-1.446c-.05-.221-.091-.445-.129-.668.387.028.776.047,1.164.047s.776-.019,1.164-.047c-.039.223-.08.447-.129.668l-.321,1.446A4.26,4.26,0,0,1,65.445,170.459Zm2.712-.395.176-.8c.078-.351.138-.7.192-1.056.354-.053.707-.117,1.056-.191l.8-.176a4.694,4.694,0,0,1-2.221,2.222Z" transform="translate(-48.491 -148.312)" fill="#fff"/>
      <path id="Path_4955" data-name="Path 4955" d="M76.313,384h9.352v1.169H76.313Z" transform="translate(-63.322 -355.945)" fill="#fff"/>
      <path id="Path_4956" data-name="Path 4956" d="M92.313,416h7.014v1.169H92.313Z" transform="translate(-78.153 -385.607)" fill="#fff"/>
      <path id="Path_4957" data-name="Path 4957" d="M132.313,352h1.169v1.169h-1.169Z" transform="translate(-115.23 -326.283)" fill="#fff"/>
      <path id="Path_4958" data-name="Path 4958" d="M100.313,352h1.169v1.169h-1.169Z" transform="translate(-85.568 -326.283)" fill="#fff"/>
      <path id="Path_4959" data-name="Path 4959" d="M164.313,352h1.169v1.169h-1.169Z" transform="translate(-144.892 -326.283)" fill="#fff"/>
    </g>
  </g>
</svg>
