<svg id="Iconly_Light_Play" data-name="Iconly/Light/Play" xmlns="http://www.w3.org/2000/svg" width="93.809" height="93.809" viewBox="0 0 93.809 93.809">
  <g id="Play" transform="translate(7.817 7.817)">
    <path id="Stroke_1" data-name="Stroke 1" d="M39.087,0A39.087,39.087,0,1,1,0,39.087,39.087,39.087,0,0,1,39.087,0Z" fill="none" stroke="#fff" stroke-linecap="round" stroke-linejoin="round" stroke-miterlimit="10" stroke-width="4.5"/>
    <path id="Stroke_3" data-name="Stroke 3" d="M20.169,15.515c-2.849,3.072-10.6,8.271-14.572,9.94a15.57,15.57,0,0,1-2.6.836,1.97,1.97,0,0,1-1.794-1.055,20.48,20.48,0,0,1-.649-2.693A64.9,64.9,0,0,1,0,13.15,61.07,61.07,0,0,1,.618,3.437c.109-.61.43-2.013.524-2.24A1.945,1.945,0,0,1,2.025.236,1.932,1.932,0,0,1,3,0,13.642,13.642,0,0,1,5.249.7c3.823,1.485,11.91,6.871,14.88,10.038.266.285,1,1.051,1.118,1.208a1.96,1.96,0,0,1,.043,2.353C21.162,14.471,20.415,15.253,20.169,15.515Z" transform="translate(30.84 25.397)" fill="none" stroke="#fff" stroke-linecap="round" stroke-linejoin="round" stroke-miterlimit="10" stroke-width="4.5"/>
  </g>
</svg>
