<svg xmlns="http://www.w3.org/2000/svg" version="1.1" xmlns:xlink="http://www.w3.org/1999/xlink" xmlns:svgjs="http://svgjs.com/svgjs" width="512" height="512" x="0" y="0" viewBox="0 0 512.004 512.004" style="enable-background:new 0 0 512 512" xml:space="preserve" class=""><g><path xmlns="http://www.w3.org/2000/svg" d="m448.897 312.242c-37.286-19.766-88.483-33.248-144.693-38.162l1.297-15.564c11.991-3.931 20.675-15.229 20.675-28.517v-80c0-26.888-15.239-50.284-37.533-62.005 34.966-29.6 13.916-87.993-32.467-87.994-46.383.002-67.433 58.402-32.466 87.995-22.294 11.721-37.533 35.116-37.533 62.005v80c0 13.288 8.684 24.586 20.674 28.517l1.297 15.564c-80.408 7.485-202.675 37.704-207.974 117.919 6.84 92.453 165.16 120.206 256.001 120.003 67.087-.001 130.313-11.753 178.032-33.091 95.279-40.586 105.959-119.348 14.69-166.67zm-232.686 58.588c1.385 16.629 14.267 29.17 29.965 29.17h20.001c15.698 0 28.58-12.541 29.965-29.169l2.578-30.938c60.94 6.996 97.082 27.482 97.082 44.045-5.768 34.915-99.486 47.389-139.625 46.437-40.054.985-133.959-11.579-139.627-46.437.001-16.563 36.143-37.049 97.083-44.045zm9.966-320.83c0-16.542 13.458-30 30-30 39.744 1.508 39.734 58.498 0 60-16.542 0-30-13.458-30-30zm-20 180v-80c2.504-66.216 97.487-66.245 100 .001 0-.001 0 80 0 80 0 5.514-4.486 10-10 10-5.201 0-9.534 3.987-9.965 9.169l-10 120c-.449 5.382-4.039 10.83-10.034 10.83h-20.001c-5.995 0-9.586-5.448-10.034-10.831l-10-120c-.432-5.183-4.765-9.169-9.965-9.169-5.516 0-10.001-4.486-10.001-10zm219.866 230.655c-88.556 41.486-251.179 41.487-339.733-.002-42.029-18.792-66.134-43.815-66.134-68.651 5.507-64.896 121.706-92.119 189.634-97.99l2.162 25.941c-30.857 3.483-57.694 10.423-77.968 20.195-60.106 29.975-42.822 72.629 12.843 93.054 57.627 22.727 161.036 22.728 218.662 0 55.724-20.444 72.902-63.098 12.843-93.055-20.275-9.771-47.112-16.71-77.968-20.194l2.162-25.941c53.558 4.687 102.025 17.369 136.986 35.902 76.978 40.215 65.919 95.851-13.489 130.741z" fill="#FFFFFF" data-original="#000000"></path></g></svg>