<svg id="Iconly_Light_Calling" data-name="Iconly/Light/Calling" xmlns="http://www.w3.org/2000/svg" width="35" height="35" viewBox="0 0 35 35">
  <g id="Calling" transform="translate(3.646 3.646)">
    <path id="Stroke_1" data-name="Stroke 1" d="M.715,3.461C1.176,2.7,3.719-.082,5.531,0A2.4,2.4,0,0,1,6.942.755h0c.893.875,3.454,4.175,3.6,4.87.355,1.7-1.677,2.687-1.056,4.4A14.4,14.4,0,0,0,17.68,18.22c1.716.623,2.7-1.408,4.4-1.054.695.145,4,2.7,4.871,3.6h0a2.39,2.39,0,0,1,.753,1.411c.067,1.909-2.883,4.487-3.458,4.816-1.357.972-3.127.954-5.286-.049C12.941,24.437,3.316,14.995.764,8.745-.213,6.6-.279,4.817.715,3.461Z" transform="translate(0 0)" fill="none" stroke="#fff" stroke-linecap="round" stroke-linejoin="round" stroke-miterlimit="10" stroke-width="2"/>
    <path id="Path" d="M0,0A11.624,11.624,0,0,1,10.268,10.255" transform="translate(17.595 0.365)" fill="none" stroke="#fff" stroke-linecap="round" stroke-linejoin="round" stroke-miterlimit="10" stroke-width="2"/>
    <path id="Path-2" data-name="Path" d="M0,0A6.454,6.454,0,0,1,5.1,5.1" transform="translate(17.595 5.531)" fill="none" stroke="#fff" stroke-linecap="round" stroke-linejoin="round" stroke-miterlimit="10" stroke-width="2"/>
  </g>
</svg>
