<svg id="Iconly_Light_Category" data-name="Iconly/Light/Category" xmlns="http://www.w3.org/2000/svg" width="35" height="35" viewBox="0 0 35 35">
  <g id="Category" transform="translate(2.917 2.917)">
    <path id="Stroke_1" data-name="Stroke 1" d="M3.571,0H8.335A3.587,3.587,0,0,1,11.9,3.6v4.8a3.588,3.588,0,0,1-3.57,3.6H3.571A3.588,3.588,0,0,1,0,8.406V3.6A3.587,3.587,0,0,1,3.571,0Z" transform="translate(17.262 0)" fill="none" stroke="#fff" stroke-linecap="round" stroke-linejoin="round" stroke-miterlimit="10" stroke-width="2"/>
    <path id="Stroke_3" data-name="Stroke 3" d="M3.571,0H8.334A3.587,3.587,0,0,1,11.9,3.6v4.8a3.588,3.588,0,0,1-3.571,3.6H3.571A3.588,3.588,0,0,1,0,8.406V3.6A3.587,3.587,0,0,1,3.571,0Z" transform="translate(0 0)" fill="none" stroke="#fff" stroke-linecap="round" stroke-linejoin="round" stroke-miterlimit="10" stroke-width="2"/>
    <path id="Stroke_5" data-name="Stroke 5" d="M3.571,0H8.334A3.587,3.587,0,0,1,11.9,3.6v4.8a3.587,3.587,0,0,1-3.571,3.6H3.571A3.587,3.587,0,0,1,0,8.406V3.6A3.587,3.587,0,0,1,3.571,0Z" transform="translate(0 17.158)" fill="none" stroke="#fff" stroke-linecap="round" stroke-linejoin="round" stroke-miterlimit="10" stroke-width="2"/>
    <path id="Stroke_7" data-name="Stroke 7" d="M3.571,0H8.335A3.587,3.587,0,0,1,11.9,3.6v4.8a3.587,3.587,0,0,1-3.57,3.6H3.571A3.587,3.587,0,0,1,0,8.406V3.6A3.587,3.587,0,0,1,3.571,0Z" transform="translate(17.262 17.158)" fill="none" stroke="#fff" stroke-linecap="round" stroke-linejoin="round" stroke-miterlimit="10" stroke-width="2"/>
  </g>
</svg>
