<svg id="Iconly_Light_Home" data-name="Iconly/Light/Home" xmlns="http://www.w3.org/2000/svg" width="35" height="35" viewBox="0 0 35 35">
  <g id="Home" transform="translate(3.646 2.917)">
    <path id="Home-2" data-name="Home" d="M9.708,27.375V22.9a2.08,2.08,0,0,1,2.076-2.069h4.209a2.08,2.08,0,0,1,2.09,2.069h0v4.486a1.786,1.786,0,0,0,1.754,1.778h2.806a5.04,5.04,0,0,0,5.065-5.014h0V11.43a3.557,3.557,0,0,0-1.4-2.778L16.709,1a4.638,4.638,0,0,0-5.752,0L1.4,8.666A3.53,3.53,0,0,0,0,11.444V24.153a5.04,5.04,0,0,0,5.065,5.014H7.871a1.8,1.8,0,0,0,1.81-1.792h0" fill="none" stroke="#fff" stroke-linecap="round" stroke-linejoin="round" stroke-miterlimit="10" stroke-width="2"/>
  </g>
</svg>
