<svg id="Iconly_Light_Paper" data-name="Iconly/Light/Paper" xmlns="http://www.w3.org/2000/svg" width="35" height="35" viewBox="0 0 35 35">
  <g id="Paper" transform="translate(6.197 4.011)">
    <path id="Stroke_1" data-name="Stroke 1" d="M15.294,0h-9.7A5.571,5.571,0,0,0,0,5.438V21.061a5.581,5.581,0,0,0,5.591,5.7H17.242a5.669,5.669,0,0,0,5.438-5.7V7.694Z" transform="translate(0 0.017)" fill="none" stroke="#fff" stroke-linecap="round" stroke-linejoin="round" stroke-miterlimit="10" stroke-width="2"/>
    <path id="Stroke_3" data-name="Stroke 3" d="M0,0V4.242A3.754,3.754,0,0,0,3.745,8c1.921,0,3.885.006,4.018,0" transform="translate(14.91 0)" fill="none" stroke="#fff" stroke-linecap="round" stroke-linejoin="round" stroke-miterlimit="10" stroke-width="2"/>
    <path id="Stroke_5" data-name="Stroke 5" d="M7.871.5H0" transform="translate(6.763 18.178)" fill="none" stroke="#fff" stroke-linecap="round" stroke-linejoin="round" stroke-miterlimit="10" stroke-width="2"/>
    <path id="Stroke_7" data-name="Stroke 7" d="M4.894.5H0" transform="translate(6.762 10.956)" fill="none" stroke="#fff" stroke-linecap="round" stroke-linejoin="round" stroke-miterlimit="10" stroke-width="2"/>
  </g>
</svg>
