<svg xmlns="http://www.w3.org/2000/svg" width="65.208" height="43.623" viewBox="0 0 65.208 43.623">
  <g id="Group_714" data-name="Group 714" transform="translate(-118.146 -208.085)" opacity="0.998" style="isolation: isolate">
    <g id="Group_66" data-name="Group 66" transform="translate(118.146 208.085)">
      <rect id="Rectangle_92" data-name="Rectangle 92" width="0.733" height="0.732" transform="translate(38.413 0.79)" fill="#0c508c"/>
      <rect id="Rectangle_93" data-name="Rectangle 93" width="0.733" height="0.732" transform="translate(53.662 9.89)" fill="#0c508c"/>
      <path id="Path_4773" data-name="Path 4773" d="M469.59,227.808a1.073,1.073,0,0,0,.435-.37,1.589,1.589,0,0,0,.234-.585,3.961,3.961,0,0,0,.069-.773v-5.123h-.733v5.123a3.65,3.65,0,0,1-.032.526.981.981,0,0,1-.11.348.463.463,0,0,1-.211.192.849.849,0,0,1-.344.059,1.116,1.116,0,0,1-.376-.055l-.193.7a2.25,2.25,0,0,0,.6.082A1.547,1.547,0,0,0,469.59,227.808Z" transform="translate(-407.014 -218.702)" fill="#0c508c"/>
      <path id="Path_4774" data-name="Path 4774" d="M453.561,209.042h-1.007v-.169a.34.34,0,0,1,.059-.214.3.3,0,0,1,.226-.064h.5v-.51h-.517a.89.89,0,0,0-.647.219.957.957,0,0,0-.224.7v.6h1.606Z" transform="translate(-393.506 -208.085)" fill="#0c508c"/>
      <rect id="Rectangle_94" data-name="Rectangle 94" width="0.733" height="0.732" transform="translate(52.196 9.89)" fill="#0c508c"/>
      <rect id="Rectangle_95" data-name="Rectangle 95" width="0.733" height="0.732" transform="translate(39.88 0.79)" fill="#0c508c"/>
      <path id="Path_4775" data-name="Path 4775" d="M438,225.343a2.893,2.893,0,0,0,.967.439,4.634,4.634,0,0,0,1.164.142h.194l.247-.516v.726a.963.963,0,0,1-.33.824,1.52,1.52,0,0,1-.926.247,2.647,2.647,0,0,1-.609-.064,3.545,3.545,0,0,1-.619-.219l-.229.7a6.692,6.692,0,0,0,.747.233,2.811,2.811,0,0,0,.655.078,2.078,2.078,0,0,0,1.558-.507,1.9,1.9,0,0,0,.486-1.368v-5.1h-1.173a3.785,3.785,0,0,0-1.237.192,2.991,2.991,0,0,0-.958.526,2.351,2.351,0,0,0-.619.8,2.3,2.3,0,0,0-.22,1,2.358,2.358,0,0,0,.243,1.111A2.139,2.139,0,0,0,438,225.343Zm0-2.594a1.793,1.793,0,0,1,.449-.563,2.088,2.088,0,0,1,.637-.362,2.195,2.195,0,0,1,.719-.127h1.185l-.419.209v3.286h-.743a2.543,2.543,0,0,1-.774-.115,1.941,1.941,0,0,1-.637-.334,1.546,1.546,0,0,1-.431-.539,1.648,1.648,0,0,1-.156-.732A1.553,1.553,0,0,1,438,222.749Z" transform="translate(-381.254 -218.702)" fill="#0c508c"/>
      <path id="Path_4776" data-name="Path 4776" d="M322.708,227.834h1.524v-.548c.015.026.029.052.046.076a1.072,1.072,0,0,0,.435.371,1.544,1.544,0,0,0,.664.128h13.369v-6.905h-.733v6.173H325.405a.847.847,0,0,1-.344-.06.462.462,0,0,1-.211-.192.987.987,0,0,1-.11-.348,3.656,3.656,0,0,1-.032-.526v-5.048h-1.981a3.372,3.372,0,0,0-3.407,3.439v.019A3.341,3.341,0,0,0,322.708,227.834Zm-2.608-3.458a2.615,2.615,0,0,1,2.608-2.727h1.716l-.449.224V226a3.932,3.932,0,0,0,.069.773,1.766,1.766,0,0,0,.114.364h-1.431A2.646,2.646,0,0,1,320.1,224.4Z" transform="translate(-284.095 -218.702)" fill="#0c508c"/>
      <path id="Path_4777" data-name="Path 4777" d="M274.51,225.98l.319.843-4.657-5.912h-.728v6.872h.757V222.6l-.431-1,4.876,6.181h.62v-6.872h-.757Z" transform="translate(-242.953 -218.665)" fill="#0c508c"/>
      <path id="Path_4778" data-name="Path 4778" d="M320.1,290.857l4.227-4.028v-2.765h-11.3v3.146h5.793l2.149-1.38-5.363,5.385.573,2.337h1.528c2.054,0,3.272.763,3.272,2.122v.047a2.1,2.1,0,0,1-2.364,2.026,5.1,5.1,0,0,1-4.036-2l-2.532,2.408a8.118,8.118,0,0,0,6.52,2.884c3.726,0,6.019-2.312,6.019-5.459v-.048C324.586,292.431,322.365,291.239,320.1,290.857Z" transform="translate(-278.096 -270.76)" fill="#0c508c"/>
      <path id="Path_4779" data-name="Path 4779" d="M225.6,220.239a3.485,3.485,0,0,0-3.521,3.554v.019a3.512,3.512,0,1,0,7.023-.019v-.02A3.452,3.452,0,0,0,225.6,220.239Zm2.695,3.573a2.7,2.7,0,0,1-2.695,2.817,2.734,2.734,0,0,1-2.715-2.837v-.02a2.7,2.7,0,0,1,2.695-2.817,2.734,2.734,0,0,1,2.715,2.837Z" transform="translate(-203.878 -218.111)" fill="#0c508c"/>
      <path id="Path_4780" data-name="Path 4780" d="M397.982,282.429a8.637,8.637,0,0,0-8.908,8.629v.048a8.889,8.889,0,0,0,17.769-.048v-.048A8.558,8.558,0,0,0,397.982,282.429ZM403,291.106a5,5,0,0,1-5.016,5.2,5.074,5.074,0,0,1-5.063-5.245v-.048a5,5,0,0,1,5.015-5.2A5.074,5.074,0,0,1,403,291.058Z" transform="translate(-341.635 -269.412)" fill="#0c508c"/>
      <rect id="Rectangle_96" data-name="Rectangle 96" width="0.777" height="6.872" transform="translate(16.08 2.246)" fill="#0c508c"/>
      <path id="Path_4781" data-name="Path 4781" d="M122.459,297.718l.71-.547,3.654-2.815c2.961-2.288,4.394-3.671,4.394-6.46v-.047c0-3.123-2.293-5.149-5.756-5.149-2.985,0-4.586,1.216-6.234,3.457l2.579,2.073c1.242-1.525,2.126-2.24,3.415-2.24a2.049,2.049,0,0,1,2.245,2.169c0,1.382-.812,2.288-2.89,4l-5.565,4.553v2.908h12.372v-3.171h-6.375Z" transform="translate(-118.86 -269.635)" fill="#0c508c"/>
      <path id="Path_4782" data-name="Path 4782" d="M121.8,227.832l2.96-6.921h-.836l-2.34,5.633.075.755-.194-.469-2.026-4.9-.423-1.023h-.866l2.961,6.921Z" transform="translate(-118.147 -218.665)" fill="#0c508c"/>
      <rect id="Rectangle_97" data-name="Rectangle 97" width="0.777" height="6.872" transform="translate(7.665 2.246)" fill="#0c508c"/>
      <path id="Path_4783" data-name="Path 4783" d="M176.094,223.511c-1.515-.324-1.869-.687-1.869-1.335v-.02c0-.619.57-1.109,1.466-1.109a3.028,3.028,0,0,1,1.987.746l.452-.6a3.6,3.6,0,0,0-2.419-.844,2.032,2.032,0,0,0-2.262,1.875v.019c0,1.129.728,1.639,2.311,1.983,1.446.3,1.79.667,1.79,1.306v.019c0,.678-.61,1.168-1.534,1.168a3.283,3.283,0,0,1-2.361-.971l-.482.569a4.031,4.031,0,0,0,2.813,1.1c1.367,0,2.351-.766,2.351-1.944v-.019C178.336,224.4,177.629,223.845,176.094,223.511Z" transform="translate(-163.538 -218.202)" fill="#0c508c"/>
    </g>
    <path id="Path_4784" data-name="Path 4784" d="M242.914,276.161l.847.811-.813.845-.847-.811Z" transform="translate(-102.252 -56.156)" fill="#0c508c"/>
    <path id="Path_4785" data-name="Path 4785" d="M257.81,277.006l.846.811.813-.845-.847-.811Z" transform="translate(-115.209 -56.156)" fill="#0c508c"/>
    <path id="Path_4786" data-name="Path 4786" d="M251,283.97l.66.631.632-.658-.659-.631Z" transform="translate(-109.592 -62.055)" fill="#0c508c"/>
    <path id="Path_4787" data-name="Path 4787" d="M264.805,286.032l.659.632.632-.658-.659-.632Z" transform="translate(-120.98 -63.756)" fill="#0c508c"/>
    <path id="Path_4788" data-name="Path 4788" d="M244.844,289.714l.659.632.632-.658-.659-.632Z" transform="translate(-104.514 -66.793)" fill="#0c508c"/>
    <path id="Path_4789" data-name="Path 4789" d="M257.477,290.151l.659.632.633-.658-.659-.632Z" transform="translate(-114.934 -67.153)" fill="#0c508c"/>
    <path id="Path_4790" data-name="Path 4790" d="M252.537,295.392l.464.444.445-.463-.464-.444Z" transform="translate(-110.859 -71.638)" fill="#0c508c"/>
    <path id="Path_4791" data-name="Path 4791" d="M262.526,297.386l.464.444.445-.463-.464-.444Z" transform="translate(-119.099 -73.283)" fill="#0c508c"/>
    <rect id="Rectangle_98" data-name="Rectangle 98" width="1.463" height="1.46" transform="matrix(0.984, -0.18, 0.18, 0.984, 147.247, 220.583)" fill="#0c508c"/>
    <rect id="Rectangle_99" data-name="Rectangle 99" width="1.173" height="1.171" transform="translate(145.37 221.183) rotate(-10.377)" fill="#0c508c"/>
    <rect id="Rectangle_100" data-name="Rectangle 100" width="1.173" height="1.171" transform="translate(147.6 222.79) rotate(-10.392)" fill="#0c508c"/>
    <rect id="Rectangle_101" data-name="Rectangle 101" width="0.914" height="0.912" transform="matrix(0.984, -0.18, 0.18, 0.984, 146.009, 222.957)" fill="#0c508c"/>
    <rect id="Rectangle_102" data-name="Rectangle 102" width="0.913" height="0.912" transform="matrix(0.984, -0.18, 0.18, 0.984, 147.758, 224.662)" fill="#0c508c"/>
    <rect id="Rectangle_103" data-name="Rectangle 103" width="0.914" height="0.912" transform="matrix(0.984, -0.18, 0.18, 0.984, 144.663, 223.322)" fill="#0c508c"/>
    <rect id="Rectangle_104" data-name="Rectangle 104" width="0.913" height="0.912" transform="matrix(0.984, -0.18, 0.18, 0.984, 146.294, 224.497)" fill="#0c508c"/>
    <rect id="Rectangle_105" data-name="Rectangle 105" width="0.643" height="0.642" transform="translate(145.149 224.606) rotate(-10.388)" fill="#0c508c"/>
    <rect id="Rectangle_106" data-name="Rectangle 106" width="0.643" height="0.641" transform="translate(146.363 225.91) rotate(-10.359)" fill="#0c508c"/>
    <path id="Path_4792" data-name="Path 4792" d="M305.817,306.321l-.629,1.318,1.321.627.628-1.318Z" transform="translate(-154.291 -81.035)" fill="#0c508c"/>
    <path id="Path_4793" data-name="Path 4793" d="M295.7,302.843l-.5,1.057,1.06.5.5-1.058Z" transform="translate(-146.045 -78.166)" fill="#0c508c"/>
    <path id="Path_4794" data-name="Path 4794" d="M300.648,317.72l-.5,1.058,1.06.5.5-1.058Z" transform="translate(-150.13 -90.438)" fill="#0c508c"/>
    <path id="Path_4795" data-name="Path 4795" d="M293.244,313.191l-.392.824.825.392.393-.824Z" transform="translate(-144.115 -86.702)" fill="#0c508c"/>
    <path id="Path_4796" data-name="Path 4796" d="M295.635,326.915l-.393.824.825.392.393-.824Z" transform="translate(-146.087 -98.023)" fill="#0c508c"/>
    <path id="Path_4797" data-name="Path 4797" d="M285.785,310.391l-.393.824.825.392.393-.824Z" transform="translate(-137.962 -84.392)" fill="#0c508c"/>
    <path id="Path_4798" data-name="Path 4798" d="M289.408,321.272l-.393.824.825.392.393-.824Z" transform="translate(-140.95 -93.368)" fill="#0c508c"/>
    <path id="Path_4799" data-name="Path 4799" d="M284.288,317.956l-.276.579.58.275.276-.579Z" transform="translate(-136.823 -90.633)" fill="#0c508c"/>
    <rect id="Rectangle_107" data-name="Rectangle 107" width="0.642" height="0.642" transform="matrix(0.43, -0.903, 0.903, 0.43, 147.409, 229.669)" fill="#0c508c"/>
    <path id="Path_4800" data-name="Path 4800" d="M306.8,342.374l-1.282.7.7,1.28,1.282-.7Z" transform="translate(-154.565 -110.775)" fill="#0c508c"/>
    <path id="Path_4801" data-name="Path 4801" d="M301.354,333.3l-1.029.563.564,1.027,1.029-.563Z" transform="translate(-150.28 -103.29)" fill="#0c508c"/>
    <path id="Path_4802" data-name="Path 4802" d="M296.647,348.257l-1.029.563.565,1.027,1.029-.563Z" transform="translate(-146.397 -115.628)" fill="#0c508c"/>
    <path id="Path_4803" data-name="Path 4803" d="M293.945,339.953l-.8.439.439.8.8-.438Z" transform="translate(-144.357 -108.778)" fill="#0c508c"/>
    <path id="Path_4804" data-name="Path 4804" d="M287.839,352.479l-.8.439.439.8.8-.438Z" transform="translate(-139.319 -119.111)" fill="#0c508c"/>
    <path id="Path_4805" data-name="Path 4805" d="M289.537,333.326l-.8.438.439.8.8-.439Z" transform="translate(-140.72 -103.312)" fill="#0c508c"/>
    <path id="Path_4806" data-name="Path 4806" d="M286.1,344.266l-.8.439.439.8.8-.438Z" transform="translate(-137.882 -112.336)" fill="#0c508c"/>
    <path id="Path_4807" data-name="Path 4807" d="M284.563,338.268l-.564.309.309.562.563-.308Z" transform="translate(-136.813 -107.388)" fill="#0c508c"/>
    <path id="Path_4808" data-name="Path 4808" d="M279.666,347.184l-.564.309.309.562.564-.308Z" transform="translate(-132.773 -114.743)" fill="#0c508c"/>
    <rect id="Rectangle_108" data-name="Rectangle 108" width="1.46" height="1.463" transform="matrix(0.123, -0.992, 0.992, 0.123, 147.482, 238.403)" fill="#0c508c"/>
    <rect id="Rectangle_109" data-name="Rectangle 109" width="1.171" height="1.173" transform="matrix(0.123, -0.992, 0.992, 0.123, 147.793, 236.184)" fill="#0c508c"/>
    <rect id="Rectangle_110" data-name="Rectangle 110" width="1.171" height="1.173" transform="matrix(0.123, -0.992, 0.992, 0.123, 145.589, 237.827)" fill="#0c508c"/>
    <rect id="Rectangle_111" data-name="Rectangle 111" width="0.912" height="0.914" transform="translate(146.196 236.036) rotate(-82.955)" fill="#0c508c"/>
    <rect id="Rectangle_112" data-name="Rectangle 112" width="0.912" height="0.914" transform="translate(144.043 237.191) rotate(-82.955)" fill="#0c508c"/>
    <rect id="Rectangle_113" data-name="Rectangle 113" width="0.912" height="0.914" transform="translate(146.25 234.645) rotate(-82.937)" fill="#0c508c"/>
    <rect id="Rectangle_114" data-name="Rectangle 114" width="0.912" height="0.914" transform="translate(144.638 235.846) rotate(-82.937)" fill="#0c508c"/>
    <rect id="Rectangle_115" data-name="Rectangle 115" width="0.641" height="0.642" transform="matrix(0.123, -0.992, 0.992, 0.123, 145.18, 234.488)" fill="#0c508c"/>
    <rect id="Rectangle_116" data-name="Rectangle 116" width="0.641" height="0.643" transform="matrix(0.123, -0.992, 0.992, 0.123, 143.569, 235.253)" fill="#0c508c"/>
    <path id="Path_4809" data-name="Path 4809" d="M252.27,384.522l-1.072-.993-1,1.07,1.072.993Z" transform="translate(-108.934 -144.724)" fill="#0c508c"/>
    <path id="Path_4810" data-name="Path 4810" d="M251.142,267.74l-1.072-.993-1,1.07,1.072.993Z" transform="translate(-108.004 -48.39)" fill="#0c508c"/>
    <path id="Path_4811" data-name="Path 4811" d="M260.729,376.294l-.86-.8-.8.858.86.8Z" transform="translate(-116.249 -138.099)" fill="#0c508c"/>
    <path id="Path_4812" data-name="Path 4812" d="M245.022,376.555l-.86-.8-.8.858.86.8Z" transform="translate(-103.292 -138.314)" fill="#0c508c"/>
    <path id="Path_4813" data-name="Path 4813" d="M253.457,371.191l-.67-.62-.621.668.669.62Z" transform="translate(-110.554 -134.035)" fill="#0c508c"/>
    <path id="Path_4814" data-name="Path 4814" d="M239.623,369.356l-.669-.62-.621.668.67.621Z" transform="translate(-99.142 -132.521)" fill="#0c508c"/>
    <path id="Path_4815" data-name="Path 4815" d="M258.368,364.927l-.67-.62-.621.668.669.62Z" transform="translate(-114.605 -128.868)" fill="#0c508c"/>
    <path id="Path_4816" data-name="Path 4816" d="M246.882,365.117l-.67-.62-.621.668.669.62Z" transform="translate(-105.129 -129.024)" fill="#0c508c"/>
    <path id="Path_4817" data-name="Path 4817" d="M253.553,361.579l-.471-.437-.437.47.471.436Z" transform="translate(-110.948 -126.258)" fill="#0c508c"/>
    <path id="Path_4818" data-name="Path 4818" d="M243.53,359.754l-.471-.436-.437.47.471.436Z" transform="translate(-102.68 -124.752)" fill="#0c508c"/>
    <rect id="Rectangle_117" data-name="Rectangle 117" width="1.463" height="1.46" transform="matrix(0.981, -0.197, 0.197, 0.981, 135.367, 237.441)" fill="#0c508c"/>
    <rect id="Rectangle_118" data-name="Rectangle 118" width="1.173" height="1.171" transform="translate(137.575 237.035) rotate(-11.326)" fill="#0c508c"/>
    <rect id="Rectangle_119" data-name="Rectangle 119" width="1.173" height="1.171" transform="translate(135.318 235.466) rotate(-11.342)" fill="#0c508c"/>
    <rect id="Rectangle_120" data-name="Rectangle 120" width="0.913" height="0.912" transform="translate(137.212 235.475) rotate(-11.326)" fill="#0c508c"/>
    <rect id="Rectangle_121" data-name="Rectangle 121" width="0.914" height="0.912" transform="translate(138.552 235.088) rotate(-11.326)" fill="#0c508c"/>
    <rect id="Rectangle_122" data-name="Rectangle 122" width="0.914" height="0.912" transform="translate(136.901 233.94) rotate(-11.326)" fill="#0c508c"/>
    <rect id="Rectangle_123" data-name="Rectangle 123" width="0.643" height="0.641" transform="translate(138.363 234.025) rotate(-11.317)" fill="#0c508c"/>
    <rect id="Rectangle_124" data-name="Rectangle 124" width="0.643" height="0.641" transform="translate(137.128 232.741) rotate(-11.345)" fill="#0c508c"/>
    <path id="Path_4819" data-name="Path 4819" d="M195.182,346.709l.606-1.328-1.331-.605-.606,1.328Z" transform="translate(-62.449 -112.757)" fill="#0c508c"/>
    <path id="Path_4820" data-name="Path 4820" d="M207.185,351.813l.486-1.066-1.068-.485-.487,1.066Z" transform="translate(-72.568 -117.282)" fill="#0c508c"/>
    <path id="Path_4821" data-name="Path 4821" d="M201.986,337.017l.487-1.066-1.068-.486-.486,1.066Z" transform="translate(-68.279 -105.077)" fill="#0c508c"/>
    <rect id="Rectangle_125" data-name="Rectangle 125" width="0.912" height="0.913" transform="translate(134.278 232.332) rotate(-65.484)" fill="#0c508c"/>
    <path id="Path_4822" data-name="Path 4822" d="M217.458,354.885l.379-.83-.831-.378-.379.83Z" transform="translate(-81.237 -120.099)" fill="#0c508c"/>
    <rect id="Rectangle_126" data-name="Rectangle 126" width="0.912" height="0.913" transform="translate(133.819 229.936) rotate(-65.476)" fill="#0c508c"/>
    <rect id="Rectangle_127" data-name="Rectangle 127" width="0.912" height="0.913" transform="translate(135.592 232.801) rotate(-65.476)" fill="#0c508c"/>
    <rect id="Rectangle_128" data-name="Rectangle 128" width="0.912" height="0.913" transform="translate(134.926 230.906) rotate(-65.457)" fill="#0c508c"/>
    <path id="Path_4823" data-name="Path 4823" d="M221.688,339.8l.267-.584-.585-.266-.267.584Z" transform="translate(-84.93 -107.95)" fill="#0c508c"/>
    <path id="Path_4824" data-name="Path 4824" d="M220.266,329.73l.267-.584-.585-.266-.267.584Z" transform="translate(-83.757 -99.645)" fill="#0c508c"/>
    <path id="Path_4825" data-name="Path 4825" d="M193.375,310.458l1.271-.723-.725-1.268-1.27.723Z" transform="translate(-61.459 -82.806)" fill="#0c508c"/>
    <path id="Path_4826" data-name="Path 4826" d="M200.844,321.276l1.019-.58-.582-1.017-1.019.58Z" transform="translate(-67.739 -92.054)" fill="#0c508c"/>
    <path id="Path_4827" data-name="Path 4827" d="M205.3,306.241l1.019-.58-.582-1.018-1.019.58Z" transform="translate(-71.415 -79.651)" fill="#0c508c"/>
    <path id="Path_4828" data-name="Path 4828" d="M209.82,316.15l.793-.452-.453-.792-.794.452Z" transform="translate(-75.249 -88.117)" fill="#0c508c"/>
    <path id="Path_4829" data-name="Path 4829" d="M215.718,303.525l.793-.452-.453-.792-.794.452Z" transform="translate(-80.114 -77.703)" fill="#0c508c"/>
    <path id="Path_4830" data-name="Path 4830" d="M214.335,322.7l.794-.452-.453-.792-.794.452Z" transform="translate(-78.974 -93.522)" fill="#0c508c"/>
    <path id="Path_4831" data-name="Path 4831" d="M217.6,311.707l.794-.452-.453-.792-.794.452Z" transform="translate(-81.663 -84.452)" fill="#0c508c"/>
    <path id="Path_4832" data-name="Path 4832" d="M220.979,319.4l.558-.318-.318-.557-.558.317Z" transform="translate(-84.565 -91.102)" fill="#0c508c"/>
    <path id="Path_4833" data-name="Path 4833" d="M225.727,310.4l.559-.318-.318-.557-.559.318Z" transform="translate(-88.481 -83.681)" fill="#0c508c"/>
    <rect id="Rectangle_129" data-name="Rectangle 129" width="1.46" height="1.462" transform="translate(134.948 222.067) rotate(-83.898)" fill="#0c508c"/>
    <rect id="Rectangle_130" data-name="Rectangle 130" width="1.171" height="1.174" transform="matrix(0.106, -0.994, 0.994, 0.106, 134.992, 224.034)" fill="#0c508c"/>
    <rect id="Rectangle_131" data-name="Rectangle 131" width="1.171" height="1.174" transform="matrix(0.106, -0.994, 0.994, 0.106, 137.168, 222.355)" fill="#0c508c"/>
    <rect id="Rectangle_132" data-name="Rectangle 132" width="0.912" height="0.914" transform="translate(136.878 223.926) rotate(-83.889)" fill="#0c508c"/>
    <rect id="Rectangle_133" data-name="Rectangle 133" width="0.912" height="0.914" transform="translate(139.011 222.736) rotate(-83.908)" fill="#0c508c"/>
    <rect id="Rectangle_134" data-name="Rectangle 134" width="0.912" height="0.914" transform="translate(136.846 225.318) rotate(-83.887)" fill="#0c508c"/>
    <rect id="Rectangle_135" data-name="Rectangle 135" width="0.912" height="0.913" transform="translate(138.438 224.09) rotate(-83.887)" fill="#0c508c"/>
    <rect id="Rectangle_136" data-name="Rectangle 136" width="0.641" height="0.643" transform="translate(138.217 225.217) rotate(-83.892)" fill="#0c508c"/>
    <rect id="Rectangle_137" data-name="Rectangle 137" width="0.641" height="0.643" transform="translate(139.815 224.425) rotate(-83.928)" fill="#0c508c"/>
    <path id="Path_4834" data-name="Path 4834" d="M237.465,310.024a3,3,0,0,0-.58-.251,3.453,3.453,0,0,0-1.6-.117,3.854,3.854,0,0,0-.69.178l-.069.024a3.786,3.786,0,0,0-.366.163q-.156.079-.312.173a7.435,7.435,0,0,0-.7.477,14.9,14.9,0,0,1-.072-3.71.005.005,0,0,1,.009,0c.551.347.4,1.316.281,1.593,0,.006.006.009.01,0a1.709,1.709,0,0,0,.21-1.933c0-.005,0-.01.009-.006a1.568,1.568,0,0,1,.249.253,1.506,1.506,0,0,1,.312.823,2.456,2.456,0,0,1,0,.372c0,.029,0,.057-.006.082,0,0,0,.005.006,0s0,0,0,0a1.587,1.587,0,0,0,0-1.449,1.813,1.813,0,0,0-.312-.427c-.039-.04-.08-.079-.124-.118a.005.005,0,0,1,0-.009,1.2,1.2,0,0,1,.12.035,1.173,1.173,0,0,1,.312.164,1.294,1.294,0,0,1,.435.586,1.478,1.478,0,0,1,.1.535.005.005,0,0,0,.01,0,1.333,1.333,0,0,0-.111-1.095,1.289,1.289,0,0,0-.435-.42,1.4,1.4,0,0,0-.312-.139.908.908,0,0,0-.149-.033c-.006,0,0-.01,0-.011q.077-.007.148-.008a1.53,1.53,0,0,1,.312.025,1.135,1.135,0,0,1,.435.172.909.909,0,0,1,.292.312c0,.005.011,0,.01,0a.875.875,0,0,0-.3-.587,1.121,1.121,0,0,0-.435-.229,1.246,1.246,0,0,0-.312-.045.981.981,0,0,0-.389.07s-.009,0-.006-.008a.735.735,0,0,1,.4-.28.9.9,0,0,1,.312-.037.694.694,0,0,1,.256.06.005.005,0,0,0,.006-.009.976.976,0,0,0-.262-.212.835.835,0,0,0-.312-.1.781.781,0,0,0-.751.372.005.005,0,0,1-.009,0c-.036-.065-.071-.136-.1-.212a2.5,2.5,0,0,1-.17-.567,0,0,0,0,0-.009,0,2.521,2.521,0,0,1-.171.569c-.033.075-.067.145-.1.209a.005.005,0,0,1-.009,0,.8.8,0,0,0-1.324-.058.005.005,0,0,0,.006.009.819.819,0,0,1,.963.257.005.005,0,0,1-.006.008,1.146,1.146,0,0,0-1.236.306.872.872,0,0,0-.2.485c0,.006.008.009.011,0a.853.853,0,0,1,.192-.235,1.262,1.262,0,0,1,.994-.267c.006,0,.008.01,0,.011a1.316,1.316,0,0,0-1,.8,1.427,1.427,0,0,0-.012.89.005.005,0,0,0,.011,0c0-.008,0-.016,0-.024a1.318,1.318,0,0,1,.966-1.3.006.006,0,0,1,0,.009,1.613,1.613,0,0,0-.44,1.993.005.005,0,0,0,.01,0,1.637,1.637,0,0,1,.554-1.531s.012,0,.009.006a1.71,1.71,0,0,0,.21,1.933s.012,0,.01,0c-.115-.277-.27-1.246.281-1.593a.005.005,0,0,1,.009,0,14.868,14.868,0,0,1-.072,3.71,5.638,5.638,0,0,0-1.373-.813c-.057-.021-.113-.041-.169-.059a3.626,3.626,0,0,0-1.3-.184,3.353,3.353,0,0,0-1.339.338c-.052.026-.1.05-.13.07a.013.013,0,0,0,.011.023c.04-.013.08-.024.119-.035a3.7,3.7,0,0,1,1.339-.131,3.993,3.993,0,0,1,1.3.349,6.865,6.865,0,0,1,1.544,1,16.923,16.923,0,0,1-1.544,1.32l-.049.027a.361.361,0,0,0-.644.127.349.349,0,0,0,.07.311.519.519,0,0,0,.623.091,8.625,8.625,0,0,0,1.709-1.423c.058-.053.116-.106.176-.159q.089.079.175.158c.314.287.6.567.864.805.108.1.212.189.312.27a2.738,2.738,0,0,0,.435.3.564.564,0,0,0,.69-.015.307.307,0,0,0,.1-.34.364.364,0,0,0-.271-.268.361.361,0,0,0-.373.14,1.31,1.31,0,0,1-.149-.091,5.107,5.107,0,0,1-.435-.351c-.1-.086-.2-.18-.312-.279-.214-.194-.448-.409-.7-.626a8.616,8.616,0,0,1,.7-.527q.153-.1.312-.2c.141-.084.286-.162.435-.233a4.432,4.432,0,0,1,.69-.264,3.649,3.649,0,0,1,1.6-.1,4,4,0,0,1,.569.134.013.013,0,0,0,.012-.023" transform="translate(-90.748 -79.515)" fill="#0c508c"/>
    <g id="Group_67" data-name="Group 67" transform="translate(118.146 242.154)">
      <rect id="Rectangle_138" data-name="Rectangle 138" width="0.431" height="0.43" transform="translate(3.396 4.255)" fill="#0c508c"/>
      <path id="Path_4835" data-name="Path 4835" d="M272.62,410.729v-2.843h-.42v2.424h-1.584v-2.424h-.42v2.424h-1.668v-2.424h-.661a2.243,2.243,0,0,0-.714.107,1.646,1.646,0,0,0-.546.3,1.329,1.329,0,0,0-.349.453,1.311,1.311,0,0,0-.123.565,1.344,1.344,0,0,0,.142.639,1.277,1.277,0,0,0,.378.44,1.632,1.632,0,0,0,.551.256,2.546,2.546,0,0,0,.661.084Zm-5.37-.487a1.1,1.1,0,0,1-.362-.2.918.918,0,0,1-.244-.314.962.962,0,0,1-.089-.422.875.875,0,0,1,.1-.411,1.037,1.037,0,0,1,.257-.319,1.158,1.158,0,0,1,.365-.2,1.281,1.281,0,0,1,.42-.071h.415v2.005h-.415A1.413,1.413,0,0,1,267.25,410.242Z" transform="translate(-240.223 -406.971)" fill="#0c508c"/>
      <rect id="Rectangle_139" data-name="Rectangle 139" width="0.42" height="3.758" transform="translate(23.42)" fill="#0c508c"/>
      <rect id="Rectangle_140" data-name="Rectangle 140" width="0.431" height="0.43" transform="translate(27.872)" fill="#0c508c"/>
      <rect id="Rectangle_141" data-name="Rectangle 141" width="0.431" height="0.43" transform="translate(31.971 4.25)" fill="#0c508c"/>
      <rect id="Rectangle_142" data-name="Rectangle 142" width="0.431" height="0.43" transform="translate(4.131 4.255)" fill="#0c508c"/>
      <path id="Path_4836" data-name="Path 4836" d="M178.184,406H177.5a1.308,1.308,0,0,1-.577-.1.775.775,0,0,1-.331-.314,1.792,1.792,0,0,0,.037-.393v-1.351h-.42v1.419a.836.836,0,0,1-.194.579.748.748,0,0,1-.587.217.942.942,0,0,1-.336-.057.824.824,0,0,1-.262-.157.736.736,0,0,1-.173-.233.716.716,0,0,1-.068-.286v-1.482h-.42v1.451a.824.824,0,0,1-.058.327.6.6,0,0,1-.157.22.624.624,0,0,1-.226.126.888.888,0,0,1-.268.039h-.813v-2.162h-.42V406h-2.2l.735-1.754a3.74,3.74,0,0,0-.357-.275,3.15,3.15,0,0,0-.388-.225,2.286,2.286,0,0,0-.4-.152,1.553,1.553,0,0,0-.4-.055,1.573,1.573,0,0,0-.409.055,2.5,2.5,0,0,0-.407.149,2.576,2.576,0,0,0-.388.225,3.66,3.66,0,0,0-.349.277l.74,1.754h-1.453v-2.424h-.671a2.174,2.174,0,0,0-.708.11,1.713,1.713,0,0,0-.548.3,1.336,1.336,0,0,0-.354.455,1.313,1.313,0,0,0-.126.573,1.351,1.351,0,0,0,.139.636,1.222,1.222,0,0,0,.378.435,1.649,1.649,0,0,0,.553.251,2.654,2.654,0,0,0,.666.081h.252v.121a.552.552,0,0,1-.189.471.868.868,0,0,1-.53.141,1.524,1.524,0,0,1-.349-.036,2.048,2.048,0,0,1-.354-.126l-.131.4a3.8,3.8,0,0,0,.427.133,1.611,1.611,0,0,0,.375.045,1.19,1.19,0,0,0,.892-.29,1.086,1.086,0,0,0,.278-.783v-.078h6.521a1.112,1.112,0,0,0,.543-.131,1.078,1.078,0,0,0,.385-.351,1.065,1.065,0,0,0,.414.393,1.3,1.3,0,0,0,.624.141,1.437,1.437,0,0,0,.643-.131.9.9,0,0,0,.406-.4,1.149,1.149,0,0,0,.129.175.746.746,0,0,0,.2.154,1.157,1.157,0,0,0,.291.11,1.584,1.584,0,0,0,.3.037v0H178.6v-3.758h-.42Zm-11.667,0h-.425a1.468,1.468,0,0,1-.443-.065,1.116,1.116,0,0,1-.365-.191.884.884,0,0,1-.247-.309.945.945,0,0,1-.089-.419.891.891,0,0,1,.1-.414,1.022,1.022,0,0,1,.257-.322,1.2,1.2,0,0,1,.364-.207,1.254,1.254,0,0,1,.425-.073h.425Zm2.314,0-.656-1.607a1.666,1.666,0,0,1,.5-.3A1.514,1.514,0,0,1,169.2,404a1.484,1.484,0,0,1,.561.113,1.673,1.673,0,0,1,.472.28L169.58,406Z" transform="translate(-156.407 -402.659)" fill="#0c508c"/>
      <rect id="Rectangle_143" data-name="Rectangle 143" width="0.431" height="0.43" transform="translate(1.959)" fill="#0c508c"/>
      <rect id="Rectangle_144" data-name="Rectangle 144" width="0.431" height="0.43" transform="translate(44.409)" fill="#0c508c"/>
      <rect id="Rectangle_145" data-name="Rectangle 145" width="0.42" height="3.758" transform="translate(40.691)" fill="#0c508c"/>
      <rect id="Rectangle_146" data-name="Rectangle 146" width="0.431" height="0.43" transform="translate(27.137)" fill="#0c508c"/>
      <path id="Path_4837" data-name="Path 4837" d="M149.477,409.08a1.557,1.557,0,0,0-.066-.461.96.96,0,0,0-.2-.366,1.129,1.129,0,0,0-.375-.275,1.249,1.249,0,0,0-.506-.091h-.31v.419h.367a.661.661,0,0,1,.289.065.679.679,0,0,1,.226.17.639.639,0,0,1,.123.241,1.267,1.267,0,0,1,.034.314v1.215H147.09v.419h2.387Z" transform="translate(-142.022 -406.971)" fill="#0c508c"/>
      <rect id="Rectangle_147" data-name="Rectangle 147" width="0.42" height="3.758" transform="translate(62.894)" fill="#0c508c"/>
      <rect id="Rectangle_148" data-name="Rectangle 148" width="0.431" height="0.43" transform="translate(45.143)" fill="#0c508c"/>
      <path id="Path_4838" data-name="Path 4838" d="M383.266,402.659h-.42V406H381.4a1.473,1.473,0,0,0,.131-.618,1.548,1.548,0,0,0-.118-.6,1.479,1.479,0,0,0-.808-.806,1.557,1.557,0,0,0-.606-.117,1.441,1.441,0,0,0-.588.12,1.5,1.5,0,0,0-.792.812,1.535,1.535,0,0,0-.116.6,1.483,1.483,0,0,0,.034.322,1.8,1.8,0,0,0,.092.3h-1.3a1.473,1.473,0,0,0,.131-.618,1.545,1.545,0,0,0-.118-.6,1.48,1.48,0,0,0-.808-.806,1.559,1.559,0,0,0-.606-.117,1.441,1.441,0,0,0-.587.12,1.5,1.5,0,0,0-.792.812,1.542,1.542,0,0,0-.115.6,1.485,1.485,0,0,0,.034.322,1.8,1.8,0,0,0,.092.3H373.23v-3.339h-.42V406h-1.338v-.641a1.638,1.638,0,0,0-.063-.458.926.926,0,0,0-.2-.369,1.049,1.049,0,0,0-.367-.272,1.312,1.312,0,0,0-.52-.089h-1.857l.79-1.509H368.8l-.806,1.5a.92.92,0,0,0,.066.236.736.736,0,0,0,.123.188h2.14a.884.884,0,0,1,.344.06.6.6,0,0,1,.233.165.558.558,0,0,1,.121.241,1.335,1.335,0,0,1,.032.3V406H367.17v-2.424h-.661a2.244,2.244,0,0,0-.714.107,1.644,1.644,0,0,0-.545.3,1.329,1.329,0,0,0-.349.453,1.31,1.31,0,0,0-.123.565,1.344,1.344,0,0,0,.141.639,1.279,1.279,0,0,0,.378.44,1.628,1.628,0,0,0,.551.256,2.544,2.544,0,0,0,.661.084h8.326a1.509,1.509,0,0,0,.485.348,1.454,1.454,0,0,0,.611.129,1.565,1.565,0,0,0,.627-.126,1.474,1.474,0,0,0,.5-.351h1.847a1.51,1.51,0,0,0,.486.348,1.452,1.452,0,0,0,.611.129,1.565,1.565,0,0,0,.627-.126,1.479,1.479,0,0,0,.5-.351h2.135ZM366.751,406h-.415a1.414,1.414,0,0,1-.443-.068,1.1,1.1,0,0,1-.362-.2.917.917,0,0,1-.244-.314A.957.957,0,0,1,365.2,405a.875.875,0,0,1,.1-.411,1.045,1.045,0,0,1,.257-.319,1.157,1.157,0,0,1,.365-.2,1.282,1.282,0,0,1,.42-.071h.415Zm10.206-.186a1.058,1.058,0,0,1-.587.576,1.173,1.173,0,0,1-.438.081,1.053,1.053,0,0,1-.427-.086,1.069,1.069,0,0,1-.341-.236,1.091,1.091,0,0,1-.226-.348,1.116,1.116,0,0,1-.081-.424,1.137,1.137,0,0,1,.081-.427,1.106,1.106,0,0,1,.223-.351,1.051,1.051,0,0,1,.338-.238,1.037,1.037,0,0,1,.433-.089,1.154,1.154,0,0,1,.444.083,1.1,1.1,0,0,1,.351.23,1.046,1.046,0,0,1,.234.348,1.143,1.143,0,0,1,.084.443A1.094,1.094,0,0,1,376.957,405.813Zm4.071,0a1.058,1.058,0,0,1-.587.576,1.17,1.17,0,0,1-.438.081,1.055,1.055,0,0,1-.428-.086,1.068,1.068,0,0,1-.341-.236,1.09,1.09,0,0,1-.225-.348,1.109,1.109,0,0,1-.082-.424,1.13,1.13,0,0,1,.082-.427,1.1,1.1,0,0,1,.223-.351,1.052,1.052,0,0,1,.338-.238,1.035,1.035,0,0,1,.433-.089,1.154,1.154,0,0,1,.443.083,1.109,1.109,0,0,1,.352.23,1.047,1.047,0,0,1,.233.348,1.137,1.137,0,0,1,.084.443A1.093,1.093,0,0,1,381.028,405.813Z" transform="translate(-321.593 -402.659)" fill="#0c508c"/>
      <path id="Path_4839" data-name="Path 4839" d="M119.216,410.645a2.546,2.546,0,0,0,.661.084h2.749v-2.843h-.42v2.424h-1.669v-2.424h-.661a2.244,2.244,0,0,0-.713.107,1.649,1.649,0,0,0-.546.3,1.331,1.331,0,0,0-.349.453,1.311,1.311,0,0,0-.123.565,1.342,1.342,0,0,0,.142.639,1.275,1.275,0,0,0,.378.44A1.63,1.63,0,0,0,119.216,410.645Zm-.651-1.335a.877.877,0,0,1,.1-.411,1.048,1.048,0,0,1,.257-.319,1.159,1.159,0,0,1,.365-.2,1.281,1.281,0,0,1,.42-.071h.414v2.005H119.7a1.411,1.411,0,0,1-.443-.068,1.1,1.1,0,0,1-.362-.2.923.923,0,0,1-.244-.314A.965.965,0,0,1,118.566,409.31Z" transform="translate(-118.146 -406.971)" fill="#0c508c"/>
      <rect id="Rectangle_149" data-name="Rectangle 149" width="0.431" height="0.43" transform="translate(30.437 4.255)" fill="#0c508c"/>
      <rect id="Rectangle_150" data-name="Rectangle 150" width="0.431" height="0.43" transform="translate(29.702 4.255)" fill="#0c508c"/>
      <path id="Path_4840" data-name="Path 4840" d="M307.3,406.949a2.26,2.26,0,0,0,.04-.443v-.089h5.4v-3.758h-.42V406h-1.784l.734-1.754a3.737,3.737,0,0,0-.356-.275,3.154,3.154,0,0,0-.389-.225,2.286,2.286,0,0,0-.4-.152,1.551,1.551,0,0,0-.4-.055,1.578,1.578,0,0,0-.41.055,2.477,2.477,0,0,0-.406.149,2.561,2.561,0,0,0-.389.225,3.7,3.7,0,0,0-.349.277L308.9,406H307.34v-2.424h-.42v2.932a2.122,2.122,0,0,1-.018.3.559.559,0,0,1-.063.2.261.261,0,0,1-.121.11.485.485,0,0,1-.2.034.867.867,0,0,1-.1-.005.815.815,0,0,1-.115-.026l-.11.4a1.289,1.289,0,0,0,.341.047.882.882,0,0,0,.381-.074.613.613,0,0,0,.249-.212A.9.9,0,0,0,307.3,406.949Zm1.387-2.558a1.666,1.666,0,0,1,.5-.3,1.514,1.514,0,0,1,.532-.094,1.482,1.482,0,0,1,.561.113,1.68,1.68,0,0,1,.472.28L310.094,406h-.75Z" transform="translate(-273.269 -402.659)" fill="#0c508c"/>
      <rect id="Rectangle_151" data-name="Rectangle 151" width="0.431" height="0.43" transform="translate(1.224)" fill="#0c508c"/>
      <path id="Path_4841" data-name="Path 4841" d="M123.093,439.842h-.647l-1.426,1.5v-1.5h-.527v2.992h.527v-.868l.467-.479,1.023,1.346h.638l-1.3-1.705Z" transform="translate(-120.083 -433.332)" fill="#0c508c"/>
      <rect id="Rectangle_152" data-name="Rectangle 152" width="0.527" height="2.992" transform="translate(3.547 6.511)" fill="#0c508c"/>
      <path id="Path_4842" data-name="Path 4842" d="M148.136,441.911l-1.606-2.069h-.488v2.992h.518v-2.129l1.653,2.129h.441v-2.992h-.518Z" transform="translate(-141.157 -433.332)" fill="#0c508c"/>
      <path id="Path_4843" data-name="Path 4843" d="M166.215,441.377h.767v.56a1.225,1.225,0,0,1-.724.227,1,1,0,0,1-1.019-1.068v-.009a1.012,1.012,0,0,1,.972-1.055,1.176,1.176,0,0,1,.839.32l.334-.4a1.621,1.621,0,0,0-1.152-.406,1.526,1.526,0,0,0-1.546,1.547v.009a1.486,1.486,0,0,0,1.554,1.539,1.912,1.912,0,0,0,1.251-.466V440.92h-1.276Z" transform="translate(-156.537 -433.089)" fill="#0c508c"/>
      <path id="Path_4844" data-name="Path 4844" d="M185.979,439.843h-1.118v2.992h1.118a1.5,1.5,0,0,0,1.593-1.5v-.008A1.493,1.493,0,0,0,185.979,439.843Zm1.04,1.5a.976.976,0,0,1-1.04,1.009h-.591v-2.035h.591a.983.983,0,0,1,1.04,1.017Z" transform="translate(-173.179 -433.332)" fill="#0c508c"/>
      <path id="Path_4845" data-name="Path 4845" d="M204.732,439.548a1.535,1.535,0,0,0-1.572,1.547v.009a1.568,1.568,0,0,0,3.135-.009v-.009A1.521,1.521,0,0,0,204.732,439.548Zm1.011,1.556a1.012,1.012,0,0,1-1.011,1.056,1.026,1.026,0,0,1-1.019-1.064v-.009a1.011,1.011,0,0,1,1.01-1.055,1.026,1.026,0,0,1,1.019,1.064Z" transform="translate(-188.274 -433.089)" fill="#0c508c"/>
      <path id="Path_4846" data-name="Path 4846" d="M226.274,441.257l-.912-1.415H224.8v2.992h.518V440.7l.938,1.4h.017l.946-1.41v2.146h.527v-2.992h-.561Z" transform="translate(-206.126 -433.332)" fill="#0c508c"/>
      <path id="Path_4847" data-name="Path 4847" d="M254.188,439.548a1.535,1.535,0,0,0-1.571,1.547v.009a1.568,1.568,0,0,0,3.135-.009v-.009A1.521,1.521,0,0,0,254.188,439.548ZM255.2,441.1a1.012,1.012,0,0,1-1.011,1.056,1.026,1.026,0,0,1-1.019-1.064v-.009a1.012,1.012,0,0,1,1.011-1.055A1.026,1.026,0,0,1,255.2,441.1Z" transform="translate(-229.071 -433.089)" fill="#0c508c"/>
      <path id="Path_4848" data-name="Path 4848" d="M274.258,442.834h.527v-1.218H276.3v-.478h-1.512v-.816h1.7v-.479h-2.231Z" transform="translate(-246.923 -433.332)" fill="#0c508c"/>
      <path id="Path_4849" data-name="Path 4849" d="M297.853,440.9c-.574-.137-.711-.239-.711-.47v-.009c0-.2.18-.355.488-.355a1.363,1.363,0,0,1,.814.308l.283-.4a1.664,1.664,0,0,0-1.088-.376.917.917,0,0,0-1.024.867v.009c0,.552.36.74,1,.893.557.129.677.244.677.458v.008c0,.227-.206.376-.531.376a1.381,1.381,0,0,1-.947-.389l-.317.376a1.849,1.849,0,0,0,1.25.479c.63,0,1.071-.334,1.071-.893v-.009C298.816,441.279,298.486,441.052,297.853,440.9Z" transform="translate(-265.267 -433.131)" fill="#0c508c"/>
      <path id="Path_4850" data-name="Path 4850" d="M312.756,439.72l-1.319,3.013h.54l.308-.722H313.7l.3.722h.557l-1.319-3.013Zm-.278,1.825.514-1.2.518,1.2Z" transform="translate(-277.592 -433.231)" fill="#0c508c"/>
      <path id="Path_4851" data-name="Path 4851" d="M333.1,441.564c0,.551-.287.833-.754.833s-.758-.3-.758-.855v-1.7h-.527v1.723a1.18,1.18,0,0,0,1.276,1.316,1.2,1.2,0,0,0,1.289-1.342v-1.7H333.1Z" transform="translate(-293.78 -433.33)" fill="#0c508c"/>
      <path id="Path_4852" data-name="Path 4852" d="M351.231,439.843h-1.118v2.992h1.118a1.5,1.5,0,0,0,1.593-1.5v-.008A1.493,1.493,0,0,0,351.231,439.843Zm1.04,1.5a.976.976,0,0,1-1.04,1.009h-.591v-2.035h.591a.983.983,0,0,1,1.04,1.017Z" transform="translate(-309.496 -433.332)" fill="#0c508c"/>
      <rect id="Rectangle_153" data-name="Rectangle 153" width="0.527" height="2.992" transform="translate(43.995 6.511)" fill="#0c508c"/>
      <path id="Path_4853" data-name="Path 4853" d="M384.179,439.72l-1.319,3.013h.54l.308-.722h1.418l.3.722h.557l-1.319-3.013Zm-.278,1.825.514-1.2.518,1.2Z" transform="translate(-336.509 -433.231)" fill="#0c508c"/>
      <path id="Path_4854" data-name="Path 4854" d="M406.007,440.8v-.009a.9.9,0,0,0-.248-.645,1.21,1.21,0,0,0-.865-.3h-1.336v2.992h.527v-1.043h.659l.736,1.043h.621l-.809-1.132A.9.9,0,0,0,406.007,440.8Zm-1.923.53v-1h.766c.39,0,.621.176.621.5v.008c0,.3-.24.5-.617.5Z" transform="translate(-353.583 -433.332)" fill="#0c508c"/>
      <path id="Path_4855" data-name="Path 4855" d="M421.617,439.72l-1.319,3.013h.54l.308-.722h1.418l.3.722h.557l-1.319-3.013Zm-.278,1.825.514-1.2.518,1.2Z" transform="translate(-367.392 -433.231)" fill="#0c508c"/>
      <path id="Path_4856" data-name="Path 4856" d="M442.9,441.278a.713.713,0,0,0,.428-.667V440.6a.67.67,0,0,0-.2-.5,1.083,1.083,0,0,0-.784-.265h-1.345v2.992h1.387c.668,0,1.109-.286,1.109-.821V442A.734.734,0,0,0,442.9,441.278Zm-1.383-.97h.758c.339,0,.527.145.527.38v.009c0,.274-.227.406-.565.406h-.719Zm1.451,1.65c0,.269-.218.41-.578.41h-.873v-.821h.835c.415,0,.616.15.616.4Z" transform="translate(-384.464 -433.331)" fill="#0c508c"/>
      <rect id="Rectangle_154" data-name="Rectangle 154" width="0.527" height="2.992" transform="translate(59.679 6.511)" fill="#0c508c"/>
      <path id="Path_4857" data-name="Path 4857" d="M466.664,439.72h-.488l-1.319,3.013h.54l.308-.722h1.418l.3.722h.557Zm-.766,1.825.514-1.2.518,1.2Z" transform="translate(-404.149 -433.231)" fill="#0c508c"/>
    </g>
  </g>
</svg>
