<svg xmlns="http://www.w3.org/2000/svg" width="52" height="51" viewBox="0 0 52 51">
  <g id="Group_702" data-name="Group 702" transform="translate(8836 -10060)">
    <rect id="Rectangle_443" data-name="Rectangle 443" width="52" height="51" rx="25.5" transform="translate(-8836 10060)" fill="#49c688" opacity="0.732"/>
    <g id="Group_701" data-name="Group 701" transform="translate(-8824.652 10068.066)">
      <g id="Group_34" data-name="Group 34">
        <path id="Path_4752" data-name="Path 4752" d="M22.4,20.446V19.171a5.257,5.257,0,0,0,2.578-4.52V9.96A3.67,3.67,0,0,0,22.193,6.4l.421-.886A.6.6,0,0,0,22.5,4.84L20.133,2.475a.6.6,0,0,0-.679-.117L17.5,3.29a10.413,10.413,0,0,0-2.047-.847L14.721.4a.6.6,0,0,0-.563-.4H10.814a.6.6,0,0,0-.563.4L9.524,2.443a10.408,10.408,0,0,0-2.047.847L5.519,2.358a.6.6,0,0,0-.679.117L2.476,4.84a.6.6,0,0,0-.117.679L3.29,7.478a10.409,10.409,0,0,0-.847,2.047L.4,10.252a.6.6,0,0,0-.4.563v3.344a.6.6,0,0,0,.4.563l2.046.727A10.4,10.4,0,0,0,3.29,17.5l-.931,1.959a.6.6,0,0,0,.117.679L4.84,22.5a.6.6,0,0,0,.679.117l1.959-.931a10.406,10.406,0,0,0,1.858.789,3.916,3.916,0,0,0-.5,1.915v5.589a.6.6,0,0,0,.6.6h7.586a.6.6,0,0,0,0-1.194H10.032V24.387a2.75,2.75,0,0,1,2.747-2.747H16.2v3.305a1.05,1.05,0,0,0,1.683.839l1.389,1.389a.6.6,0,0,0,.844,0l1.4-1.4a1.051,1.051,0,0,0,1.694-.831V21.641h3.423a2.75,2.75,0,0,1,2.747,2.747v4.992H22.4a.6.6,0,0,0,0,1.194h7.581a.6.6,0,0,0,.6-.6V24.387a3.946,3.946,0,0,0-3.941-3.941Zm-.38,4.155-1.464-1.459,1.464-1.464Zm-4.619,0V21.678l1.464,1.464Zm3.8-3.807-1.491,1.48-1.493-1.48V19.686a5.259,5.259,0,0,0,2.985.006Zm-1.483-2.084a4.065,4.065,0,0,1-4.061-4.061v-1.8a3.641,3.641,0,0,0,1.6.369h6.521v1.428a4.065,4.065,0,0,1-4.061,4.061Zm-5.255-6.786v2.726a5.229,5.229,0,0,0,.346,1.874,4.657,4.657,0,1,1-1.215-8.563v1.6a3.647,3.647,0,0,0,.869,2.366ZM23.779,9.96v2.069H17.257a2.472,2.472,0,0,1-2.469-2.469V7.49h6.521A2.472,2.472,0,0,1,23.779,9.96Zm-13.638,11.5-.007,0A9.22,9.22,0,0,1,7.8,20.5a.6.6,0,0,0-.558-.024l-1.858.883L3.618,19.586,4.5,17.728a.6.6,0,0,0-.024-.558,9.214,9.214,0,0,1-.964-2.331.6.6,0,0,0-.378-.412l-1.941-.69v-2.5l1.941-.69a.6.6,0,0,0,.378-.412A9.221,9.221,0,0,1,4.477,7.8.6.6,0,0,0,4.5,7.245L3.618,5.387,5.387,3.618,7.245,4.5A.6.6,0,0,0,7.8,4.477a9.219,9.219,0,0,1,2.331-.964.6.6,0,0,0,.412-.378l.69-1.941h2.5l.69,1.941a.6.6,0,0,0,.412.378,9.218,9.218,0,0,1,2.331.964.6.6,0,0,0,.558.024l1.858-.883,1.769,1.769-.432.909H14.191a.6.6,0,0,0-.578.448,5.852,5.852,0,1,0-1.127,11.594,5.812,5.812,0,0,0,2.874-.754,5.3,5.3,0,0,0,1.662,1.575v1.287H12.779a3.926,3.926,0,0,0-2.638,1.016ZM19.7,25.908l-.958-.958.967-.963.958.954Z" fill="#fff"/>
        <path id="Path_4753" data-name="Path 4753" d="M309.07,265.088a.453.453,0,0,1-.64,0,.6.6,0,1,0-.845.845,1.649,1.649,0,0,0,2.329,0,.6.6,0,0,0-.844-.845Z" transform="translate(-289.053 -249.094)" fill="#fff"/>
        <path id="Path_4754" data-name="Path 4754" d="M320.6,492a.6.6,0,1,0,.422.175A.6.6,0,0,0,320.6,492Z" transform="translate(-300.891 -462.621)" fill="#fff"/>
      </g>
    </g>
  </g>
</svg>
