<svg xmlns="http://www.w3.org/2000/svg" width="51" height="51" viewBox="0 0 51 51">
  <g id="Group_768" data-name="Group 768" transform="translate(-826 -933)">
    <rect id="Rectangle_444" data-name="Rectangle 444" width="51" height="51" rx="25.5" transform="translate(826 933)" fill="#e0e0e0" opacity="0.732"/>
    <g id="Group_712" data-name="Group 712" transform="translate(27.01 428.89)">
      <g id="Group_641" data-name="Group 641" transform="translate(807.991 511)">
        <g id="Group_643" data-name="Group 643" transform="translate(0.415 2.682)">
          <g id="Group_642" data-name="Group 642">
            <g id="Group_641-2" data-name="Group 641">
              <path id="Path_5061" data-name="Path 5061" d="M452.606,1149.48a4.335,4.335,0,0,1-.221,1.367,14.7,14.7,0,0,1,6,3.474,4.34,4.34,0,0,1,1.078-.88c.044-.025.089-.048.134-.072a16.223,16.223,0,0,0-7-4.051C452.6,1149.372,452.606,1149.425,452.606,1149.48Z" transform="translate(-432.029 -1149.318)" fill="#6477aa"/>
              <path id="Path_5062" data-name="Path 5062" d="M393.351,1153.369c.045.024.09.046.134.071a4.335,4.335,0,0,1,1.078.88,14.7,14.7,0,0,1,6-3.474,4.332,4.332,0,0,1-.221-1.367c0-.054,0-.108,0-.162A16.222,16.222,0,0,0,393.351,1153.369Z" transform="translate(-388.48 -1149.318)" fill="#6477aa"/>
              <path id="Path_5063" data-name="Path 5063" d="M376.723,1200.989a14.72,14.72,0,0,1,0-6.938,4.348,4.348,0,0,1-1.294-.492c-.047-.027-.093-.056-.139-.085a16.279,16.279,0,0,0,0,8.091c.046-.029.092-.057.139-.085A4.354,4.354,0,0,1,376.723,1200.989Z" transform="translate(-374.78 -1181.892)" fill="#6477aa"/>
              <path id="Path_5064" data-name="Path 5064" d="M400.345,1254.248a4.341,4.341,0,0,1,.221-1.367,14.7,14.7,0,0,1-6-3.473,4.356,4.356,0,0,1-1.079.879c-.044.025-.089.048-.134.072a16.224,16.224,0,0,0,7,4.051C400.347,1254.356,400.345,1254.3,400.345,1254.248Z" transform="translate(-388.479 -1223.154)" fill="#6477aa"/>
              <path id="Path_5065" data-name="Path 5065" d="M459.6,1250.359c-.045-.024-.09-.046-.134-.072a4.361,4.361,0,0,1-1.08-.879,14.7,14.7,0,0,1-6,3.473,4.336,4.336,0,0,1,.221,1.367c0,.054,0,.108,0,.162A16.224,16.224,0,0,0,459.6,1250.359Z" transform="translate(-432.029 -1223.154)" fill="#6477aa"/>
              <path id="Path_5066" data-name="Path 5066" d="M492.487,1193.474c-.046.029-.092.057-.139.085a4.365,4.365,0,0,1-1.294.492,14.708,14.708,0,0,1,0,6.938,4.356,4.356,0,0,1,1.294.492c.047.027.093.056.139.085a16.277,16.277,0,0,0,0-8.091Z" transform="translate(-460.555 -1181.892)" fill="#6477aa"/>
            </g>
          </g>
        </g>
        <g id="Group_646" data-name="Group 646" transform="translate(6.499 8.173)">
          <g id="Group_645" data-name="Group 645">
            <path id="Path_5068" data-name="Path 5068" d="M415.822,1177.209l-.537-1.3,1.341-1.009a10.177,10.177,0,0,0-3-3.007l-1.014,1.339-1.3-.541-1.3-.541.236-1.666a10.063,10.063,0,0,0-4.246-.008l.231,1.668-1.3.537-1.3.537-1.009-1.341a10.18,10.18,0,0,0-3.007,3l1.339,1.013-.541,1.3-.541,1.3-1.666-.236a10.061,10.061,0,0,0-.008,4.246l1.668-.231.537,1.3.537,1.3-1.341,1.009a10.184,10.184,0,0,0,3,3.007l1.013-1.339,1.3.541,1.3.541-.236,1.666a10.063,10.063,0,0,0,4.246.008l-.231-1.668,1.3-.537,1.3-.537,1.009,1.341a10.18,10.18,0,0,0,3.007-3l-1.339-1.013.541-1.3.541-1.3,1.666.236a10.064,10.064,0,0,0,.008-4.246l-1.668.231Zm-7.709,9.452a6.273,6.273,0,1,1,6.273-6.273A6.273,6.273,0,0,1,408.113,1186.661Z" transform="translate(-397.976 -1170.251)" fill="#55acee"/>
          </g>
        </g>
        <g id="Group_647" data-name="Group 647" transform="translate(27.186 7.733)">
          <path id="Path_5069" data-name="Path 5069" d="M481.437,1170.343l.637-.472a2.832,2.832,0,0,0-.8-.812l-.483.629-.315-.134-.314-.133.117-.784a2.824,2.824,0,0,0-1.137-.01l.1.786-.317.128-.317.128-.472-.637a2.832,2.832,0,0,0-.812.8l.628.484-.133.314-.134.314-.784-.117a2.83,2.83,0,0,0-.01,1.137l.786-.1.128.317.128.317-.637.472a2.83,2.83,0,0,0,.8.812l.483-.629.315.134.315.134-.117.784a2.829,2.829,0,0,0,1.137.01l-.1-.786.317-.128.317-.128.472.637a2.826,2.826,0,0,0,.811-.8l-.628-.483.134-.315.134-.315.784.117a2.83,2.83,0,0,0,.01-1.137l-.786.1-.128-.317Zm-1.2,1.63a.779.779,0,1,1,.008-1.1A.779.779,0,0,1,480.234,1171.973Z" transform="translate(-476.844 -1168.574)" fill="#6477aa"/>
        </g>
        <g id="Group_648" data-name="Group 648" transform="translate(13.792)">
          <path id="Path_5070" data-name="Path 5070" d="M430.373,1140.862l.637-.472a2.825,2.825,0,0,0-.8-.811l-.483.629-.314-.134-.315-.134.117-.784a2.829,2.829,0,0,0-1.137-.01l.1.786-.317.128-.317.128-.472-.637a2.823,2.823,0,0,0-.811.8l.628.483-.134.314-.133.315-.784-.117a2.831,2.831,0,0,0-.01,1.137l.786-.1.128.317.128.317-.637.472a2.828,2.828,0,0,0,.8.811l.483-.629.314.134.315.134-.117.784a2.829,2.829,0,0,0,1.137.01l-.1-.786.317-.128.317-.128.472.637a2.828,2.828,0,0,0,.812-.8l-.628-.483.133-.315.134-.315.784.117a2.827,2.827,0,0,0,.01-1.137l-.786.1-.128-.317Zm-1.2,1.629a.779.779,0,1,1,.008-1.1A.778.778,0,0,1,429.171,1142.491Z" transform="translate(-425.781 -1139.093)" fill="#6477aa"/>
        </g>
        <g id="Group_649" data-name="Group 649" transform="translate(13.792 30.534)">
          <path id="Path_5071" data-name="Path 5071" d="M430.5,1259.1l.128-.317.786.1a2.825,2.825,0,0,0-.01-1.137l-.784.117-.134-.314-.133-.315.628-.483a2.826,2.826,0,0,0-.812-.8l-.472.637-.317-.128-.317-.128.1-.786a2.826,2.826,0,0,0-1.137.01l.117.784-.315.134-.314.134-.483-.629a2.826,2.826,0,0,0-.8.812l.637.472-.128.317-.128.317-.786-.1a2.831,2.831,0,0,0,.01,1.137l.784-.117.133.315.134.315-.628.483a2.824,2.824,0,0,0,.811.8l.472-.637.317.128.317.128-.1.786a2.826,2.826,0,0,0,1.137-.01l-.117-.784.315-.134.314-.134.483.629a2.828,2.828,0,0,0,.8-.812l-.637-.472Zm-1.322-.211a.779.779,0,1,1-.008-1.1A.779.779,0,0,1,429.179,1258.892Z" transform="translate(-425.781 -1255.501)" fill="#6477aa"/>
        </g>
        <g id="Group_650" data-name="Group 650" transform="translate(27.186 23.2)">
          <path id="Path_5072" data-name="Path 5072" d="M481.437,1229.308l.637-.472a2.825,2.825,0,0,0-.8-.811l-.483.628-.315-.134-.314-.134.117-.784a2.829,2.829,0,0,0-1.137-.01l.1.786-.317.128-.317.128-.472-.637a2.826,2.826,0,0,0-.812.8l.629.484-.134.314-.134.314-.784-.117a2.829,2.829,0,0,0-.01,1.137l.786-.1.128.317.128.317-.637.472a2.829,2.829,0,0,0,.8.812l.483-.628.315.134.315.134-.117.784a2.824,2.824,0,0,0,1.137.01l-.1-.786.317-.128.317-.128.472.637a2.825,2.825,0,0,0,.811-.8l-.628-.483.134-.314.134-.315.784.117a2.826,2.826,0,0,0,.01-1.137l-.786.1-.128-.317Zm-1.2,1.629a.779.779,0,1,1,.008-1.1A.779.779,0,0,1,480.234,1230.937Z" transform="translate(-476.844 -1227.539)" fill="#6477aa"/>
        </g>
        <g id="Group_651" data-name="Group 651" transform="translate(0 7.733)">
          <path id="Path_5073" data-name="Path 5073" d="M374.167,1170.66l-.128.317-.786-.1a2.825,2.825,0,0,0,.01,1.137l.784-.117.134.315.134.315-.628.483a2.824,2.824,0,0,0,.812.8l.472-.637.317.128.317.128-.1.786a2.83,2.83,0,0,0,1.137-.01l-.117-.784.315-.134.315-.134.483.629a2.829,2.829,0,0,0,.8-.812l-.637-.472.128-.317.128-.317.786.1a2.825,2.825,0,0,0-.01-1.137l-.784.117-.134-.314-.134-.314.628-.484a2.833,2.833,0,0,0-.811-.8l-.472.637-.317-.128-.317-.128.1-.786a2.826,2.826,0,0,0-1.137.01l.117.784-.315.133-.314.134-.483-.629a2.833,2.833,0,0,0-.8.812l.637.472Zm1.322.211a.779.779,0,1,1,.008,1.1A.779.779,0,0,1,375.489,1170.871Z" transform="translate(-373.2 -1168.574)" fill="#6477aa"/>
        </g>
        <g id="Group_652" data-name="Group 652" transform="translate(0 23.2)">
          <path id="Path_5074" data-name="Path 5074" d="M374.167,1229.625l-.128.317-.786-.1a2.826,2.826,0,0,0,.01,1.137l.784-.117.134.315.134.314-.628.483a2.828,2.828,0,0,0,.811.8l.472-.637.317.128.317.128-.1.786a2.826,2.826,0,0,0,1.137-.01l-.117-.784.315-.134.315-.134.483.628a2.829,2.829,0,0,0,.8-.812l-.637-.472.128-.317.128-.317.786.1a2.824,2.824,0,0,0-.01-1.137l-.784.117-.134-.314-.134-.314.628-.484a2.827,2.827,0,0,0-.811-.8l-.472.637-.317-.128-.317-.128.1-.786a2.83,2.83,0,0,0-1.137.01l.117.784-.315.134-.314.134-.483-.628a2.825,2.825,0,0,0-.8.811l.637.472Zm1.322.211a.779.779,0,1,1,.008,1.1A.778.778,0,0,1,375.489,1229.836Z" transform="translate(-373.2 -1227.539)" fill="#6477aa"/>
        </g>
      </g>
      <g id="Group_653" data-name="Group 653" transform="translate(819.144 523.827)">
        <path id="Path_5067" data-name="Path 5067" d="M425.157,1193.615l1.527-.078a5.455,5.455,0,0,0-.415-2.153l-1.447.495-.363-.55-.363-.55,1.025-1.135a5.457,5.457,0,0,0-1.816-1.229l-.673,1.373-.646-.132-.646-.133-.078-1.527a5.451,5.451,0,0,0-2.153.415l.494,1.447-.55.363-.55.363-1.135-1.024a5.454,5.454,0,0,0-1.229,1.816l1.373.673-.132.646-.132.646-1.527.078a5.451,5.451,0,0,0,.415,2.153l1.447-.494.363.55.363.55-1.024,1.135a5.459,5.459,0,0,0,1.816,1.229l.673-1.373.646.132.646.133.078,1.527a5.449,5.449,0,0,0,2.153-.415l-.494-1.447.55-.363.55-.363,1.135,1.024a5.45,5.45,0,0,0,1.229-1.816l-1.373-.673.133-.645ZM421.692,1196a2.571,2.571,0,1,1,2.034-3.015A2.571,2.571,0,0,1,421.692,1196Z" transform="translate(-415.719 -1187.994)" fill="#6477aa"/>
      </g>
      <circle id="Ellipse_164" data-name="Ellipse 164" cx="1.044" cy="1.044" r="1.044" transform="translate(823.178 529.591) rotate(-55.993)" fill="#6477aa"/>
    </g>
  </g>
</svg>
