<svg xmlns="http://www.w3.org/2000/svg" width="51" height="51" viewBox="0 0 51 51">
  <g id="Group_700" data-name="Group 700" transform="translate(-680 -917)">
    <rect id="Rectangle_31" data-name="Rectangle 31" width="51" height="51" rx="25.5" transform="translate(680 917)" fill="#5f4fc5" opacity="0.732"/>
    <g id="Group_42" data-name="Group 42" transform="translate(690.516 923.634)">
      <g id="Group_41" data-name="Group 41">
        <path id="Path_4767" data-name="Path 4767" d="M80.7,11.2H77.16c.012-.008.023-.017.036-.024l.951-.549a2.3,2.3,0,0,0,.833-3.108L77.207,4.45A2.278,2.278,0,0,0,74.1,3.617l-.952.549a.941.941,0,0,1-1.374-.793v-1.1A2.278,2.278,0,0,0,69.5,0H65.953a2.278,2.278,0,0,0-2.275,2.275v1.1a.942.942,0,0,1-1.374.793l-.952-.549a2.278,2.278,0,0,0-3.108.833L56.472,7.521a2.278,2.278,0,0,0,.833,3.108l.951.549c.013.007.024.016.036.024H54.749A1.951,1.951,0,0,0,52.8,13.151V30.465a1.952,1.952,0,0,0,1.949,1.949h9.2L63.637,35.1a1.167,1.167,0,0,1-1.161,1.036c-.016,0-.031,0-.047,0h-.738a.735.735,0,0,0,0,1.469H73.76a.735.735,0,0,0,0-1.469h-.738a.4.4,0,0,0-.047,0A1.167,1.167,0,0,1,71.814,35.1L71.5,32.415h9.2a1.952,1.952,0,0,0,1.949-1.949V13.151A1.951,1.951,0,0,0,80.7,11.2ZM64.841,36.139a2.631,2.631,0,0,0,.255-.87l.333-2.854h4.594l.333,2.854a2.635,2.635,0,0,0,.256.87h-5.77Zm1.142-23.583h3.486a.735.735,0,0,0,.735-.735V8.474a4.34,4.34,0,0,1,1.841,3.537,4.322,4.322,0,0,1-2.567,3.948.735.735,0,0,0-.414.85L70.3,21.743a.814.814,0,0,1-.8.73H65.952a.814.814,0,0,1-.8-.73l1.237-4.935a.734.734,0,0,0-.414-.85,4.319,4.319,0,0,1-.725-7.485v3.348a.735.735,0,0,0,.735.735Zm-7.944-3.2a.807.807,0,0,1-.3-1.1l1.773-3.071a.807.807,0,0,1,1.1-.3l.952.549a2.422,2.422,0,0,0,3.577-2.065v-1.1a.807.807,0,0,1,.806-.806H69.5a.807.807,0,0,1,.806.806v1.1a2.422,2.422,0,0,0,3.577,2.065l.952-.549a.807.807,0,0,1,1.1.3l1.773,3.071a.814.814,0,0,1-.295,1.1l-.951.549a2.346,2.346,0,0,0-1.17,1.988,2.37,2.37,0,0,0,1.17,2.144l.951.549a.814.814,0,0,1,.3,1.1l-1.773,3.071a.814.814,0,0,1-1.1.295l-.952-.549a2.408,2.408,0,0,0-2.8.325l-.454-1.811a5.789,5.789,0,0,0-.908-10.44.735.735,0,0,0-.988.689v3.82H66.717V7.267a.735.735,0,0,0-.988-.689,5.79,5.79,0,0,0-.908,10.441l-.454,1.811a2.407,2.407,0,0,0-2.8-.325l-.952.55a.817.817,0,0,1-1.1-.295l-1.773-3.071a.814.814,0,0,1,.295-1.1l.951-.549a2.373,2.373,0,0,0,1.17-2.14A2.347,2.347,0,0,0,58.99,9.906ZM81.182,30.465a.481.481,0,0,1-.48.48H54.749a.481.481,0,0,1-.48-.48V28.559h10.1a.735.735,0,0,0,0-1.469h-10.1V13.151a.481.481,0,0,1,.48-.48h3.635a.69.69,0,0,1-.129.094l-.951.549a2.3,2.3,0,0,0-.833,3.108l1.773,3.071a2.3,2.3,0,0,0,3.108.833l.952-.549a.942.942,0,0,1,1.374.793v1.1a2.3,2.3,0,0,0,2.275,2.275H69.5a2.3,2.3,0,0,0,2.275-2.275v-1.1a.942.942,0,0,1,1.374-.793l.951.549a2.3,2.3,0,0,0,3.108-.832l1.773-3.071a2.3,2.3,0,0,0-.833-3.108l-.951-.549a.709.709,0,0,1-.129-.094H80.7a.481.481,0,0,1,.48.48V27.09H70.854a.735.735,0,1,0,0,1.469H81.182Z" transform="translate(-52.8)" fill="#fff"/>
        <path id="Path_4768" data-name="Path 4768" d="M246.434,369.39a.734.734,0,1,0-.3.909A.74.74,0,0,0,246.434,369.39Z" transform="translate(-230.904 -341.847)" fill="#fff"/>
      </g>
    </g>
  </g>
</svg>
