<svg xmlns="http://www.w3.org/2000/svg" width="51" height="51" viewBox="0 0 51 51">
  <g id="Group_699" data-name="Group 699" transform="translate(7643 -10060)">
    <rect id="Rectangle_442" data-name="Rectangle 442" width="51" height="51" rx="25.5" transform="translate(-7643 10060)" fill="#af4ebb" opacity="0.732"/>
    <g id="Group_698" data-name="Group 698" transform="translate(-7635.264 10067.623)">
      <g id="Group_39" data-name="Group 39" transform="translate(0 0)">
        <path id="Path_4764" data-name="Path 4764" d="M32.444.187A.637.637,0,0,0,31.86.015L24.444,1.6a.637.637,0,0,0-.318,1.074L25.51,4.057,22.668,6.9a.635.635,0,0,0-.441-.178h-7.6a3.911,3.911,0,0,0-3.362,1.916H8.689a.637.637,0,0,0-.451.187l-2,2a.637.637,0,1,0,.9.9L8.953,9.911h1.834a3.915,3.915,0,0,0-.067.719V11.7H9.956a.637.637,0,0,0-.451.187L2.8,18.588,1.539,17.326l1.547-1.547a.637.637,0,0,0-.9-.9l-2,2a.637.637,0,0,0,0,.9L2.35,19.94a.637.637,0,0,0,.9,0L10.22,12.97h.5v2.666a5.611,5.611,0,0,0,2.731,4.812v1.373H8.922a4.211,4.211,0,0,0-4.206,4.206v5.965a.637.637,0,0,0,.637.637H27.277a.637.637,0,0,0,.637-.637V26.028a4.211,4.211,0,0,0-4.206-4.206H19.186V20.461a5.611,5.611,0,0,0,2.751-4.824V12.97h.524a.637.637,0,0,0,.451-.187l5.663-5.663L29.958,8.5a.637.637,0,0,0,1.074-.318L32.617.771a.637.637,0,0,0-.173-.584ZM14.63,7.995h6.96V10.2a2.639,2.639,0,0,1-2.636,2.636h-6.96V10.63A2.639,2.639,0,0,1,14.63,7.995Zm3.283,15.993v7.369H14.726V23.989l1.145,1.135a.637.637,0,0,0,.9,0ZM5.991,26.029A2.935,2.935,0,0,1,8.922,23.1H10.24l-.966.966a.637.637,0,0,0,0,.9l1.113,1.113L9.372,27.092a.637.637,0,0,0-.148.669l1.311,3.6H5.991Zm4.57,1.677,1.179-1.179a.637.637,0,0,0,0-.9l-1.113-1.113L12.043,23.1h1.408v8.259h-1.56Zm8.627,3.651V23.1H20.6l1.416,1.416L20.9,25.626a.637.637,0,0,0,0,.9l1.179,1.179-1.331,3.65h-1.56Zm7.452-5.328v5.328H22.1l1.311-3.6a.637.637,0,0,0-.148-.669l-1.015-1.015,1.113-1.113a.637.637,0,0,0,0-.9L22.4,23.1h1.31A2.935,2.935,0,0,1,26.64,26.029Zm-8.729-3.834-1.592,1.579-1.593-1.58V21.011a5.613,5.613,0,0,0,3.185.006ZM16.328,19.97a4.339,4.339,0,0,1-4.334-4.334V14.113h6.96a3.886,3.886,0,0,0,1.708-.393v1.917a4.339,4.339,0,0,1-4.334,4.334Zm13.7-13.2L29.025,5.769a.637.637,0,0,0-.9,0L22.75,11.143a3.9,3.9,0,0,0,.115-.94V8.5l4-4a.637.637,0,0,0,0-.9L25.856,2.6l5.308-1.134Z" transform="translate(0 0)" fill="#fff"/>
        <path id="Path_4765" data-name="Path 4765" d="M235.183,265.1a.483.483,0,0,1-.683,0,.637.637,0,0,0-.9.9,1.758,1.758,0,0,0,2.486,0,.637.637,0,0,0-.9-.9Z" transform="translate(-218.536 -248.031)" fill="#fff"/>
        <path id="Path_4766" data-name="Path 4766" d="M63.807,199.955a.638.638,0,1,0-.451-.187A.642.642,0,0,0,63.807,199.955Z" transform="translate(-59.144 -186.018)" fill="#fff"/>
      </g>
    </g>
  </g>
</svg>
