<svg xmlns="http://www.w3.org/2000/svg" width="51" height="51" viewBox="0 0 51 51">
  <g id="Group_766" data-name="Group 766" transform="translate(-133 -933)">
    <path id="Path_5078" data-name="Path 5078" d="M25.5,0A25.5,25.5,0,1,1,0,25.5,25.5,25.5,0,0,1,25.5,0Z" transform="translate(133 933)" fill="#8285aa" opacity="0.732"/>
    <g id="Group_703" data-name="Group 703" transform="translate(141.956 939.889)">
      <g id="Group_32" data-name="Group 32" transform="translate(0 0)">
        <path id="Path_4750" data-name="Path 4750" d="M12.936,63.941V55.108a3.332,3.332,0,1,0-3.258-5.467L2.214,45.332a3.321,3.321,0,0,0,.153-1A3.337,3.337,0,0,0-.966,41,3.337,3.337,0,0,0-4.3,44.333a3.322,3.322,0,0,0,.153,1l-7.5,4.331a3.325,3.325,0,0,0-2.5-1.128,3.337,3.337,0,0,0-3.333,3.333,3.338,3.338,0,0,0,2.608,3.253v1.113a.725.725,0,0,0,.725.725.725.725,0,0,0,.725-.725V55.121a3.334,3.334,0,0,0,1.735-1.006l3.754,2.2a7.635,7.635,0,0,0-.716,3.237,7.635,7.635,0,0,0,.71,3.223l-3.739,2.171a3.334,3.334,0,0,0-1.743-1.015V62.809a.725.725,0,0,0-.725-.725.725.725,0,0,0-.725.725v1.119a3.338,3.338,0,0,0-2.608,3.253,3.337,3.337,0,0,0,3.333,3.333,3.325,3.325,0,0,0,2.468-1.1l7.529,4.347a3.32,3.32,0,0,0-.153,1A3.337,3.337,0,0,0-.966,78.1a3.337,3.337,0,0,0,3.333-3.333,3.321,3.321,0,0,0-.153-1l7.493-4.326a3.332,3.332,0,1,0,3.229-5.5Zm-3.229.981L6,62.772a7.634,7.634,0,0,0,.71-3.223A7.635,7.635,0,0,0,6,56.312l3.717-2.176a3.332,3.332,0,0,0,1.772,1v8.781A3.333,3.333,0,0,0,9.707,64.922ZM-.966,65.78A6.2,6.2,0,0,1-4.746,64.5,2.267,2.267,0,0,1-2.5,62.52H.57A2.267,2.267,0,0,1,2.815,64.5,6.2,6.2,0,0,1-.966,65.78ZM.572,59.533A1.539,1.539,0,0,1-.966,61.07,1.539,1.539,0,0,1-2.5,59.533v-.39A1.539,1.539,0,0,1-.966,57.606,1.539,1.539,0,0,1,.572,59.143Zm3.413,3.794a3.729,3.729,0,0,0-2.469-2.134,2.969,2.969,0,0,0,.505-1.66v-.39A2.99,2.99,0,0,0-.966,56.157a2.99,2.99,0,0,0-2.987,2.987v.39a2.969,2.969,0,0,0,.505,1.66,3.729,3.729,0,0,0-2.469,2.134A6.2,6.2,0,0,1-7.2,59.549,6.238,6.238,0,0,1-.966,53.318a6.238,6.238,0,0,1,6.231,6.231A6.2,6.2,0,0,1,3.985,63.327Zm8.17-13.342a1.884,1.884,0,1,1-1.884,1.884A1.886,1.886,0,0,1,12.155,49.985Zm-3.19.919a3.327,3.327,0,0,0,.017,1.983L5.264,55.062A7.682,7.682,0,0,0-.241,51.9V47.586a3.334,3.334,0,0,0,1.729-1ZM-.966,42.449A1.886,1.886,0,0,1,.918,44.333,1.886,1.886,0,0,1-.966,46.217,1.886,1.886,0,0,1-2.85,44.333,1.886,1.886,0,0,1-.966,42.449Zm-13.177,11.3a1.886,1.886,0,0,1-1.884-1.884,1.886,1.886,0,0,1,1.884-1.884,1.886,1.886,0,0,1,1.884,1.884A1.886,1.886,0,0,1-14.143,53.752Zm3.183-.893a3.323,3.323,0,0,0,.15-.99,3.323,3.323,0,0,0-.135-.937l7.526-4.345a3.334,3.334,0,0,0,1.729,1V51.9A7.682,7.682,0,0,0-7.2,55.063Zm-3.183,16.206a1.886,1.886,0,0,1-1.884-1.884A1.886,1.886,0,0,1-14.143,65.3a1.886,1.886,0,0,1,1.884,1.884A1.886,1.886,0,0,1-14.143,69.065Zm3.186-.905a3.323,3.323,0,0,0,.147-.979,3.32,3.32,0,0,0-.147-.979L-7.2,64.023A7.683,7.683,0,0,0-1.69,67.195v4.317a3.333,3.333,0,0,0-1.729,1Zm9.991,8.489A1.886,1.886,0,0,1-2.85,74.765,1.886,1.886,0,0,1-.966,72.881,1.886,1.886,0,0,1,.918,74.765,1.886,1.886,0,0,1-.966,76.649Zm2.453-4.137a3.333,3.333,0,0,0-1.729-1V67.195a7.682,7.682,0,0,0,5.514-3.172l3.7,2.151a3.331,3.331,0,0,0,0,2.013Zm10.667-3.447a1.884,1.884,0,1,1,1.884-1.884A1.886,1.886,0,0,1,12.155,69.065Z" transform="translate(17.476 -41)" fill="#fff"/>
        <path id="Path_4751" data-name="Path 4751" d="M18.914,288.579a.725.725,0,1,0-.512-.212A.73.73,0,0,0,18.914,288.579Z" transform="translate(-15.605 -269.296)" fill="#fff"/>
      </g>
    </g>
  </g>
</svg>
