<svg id="e-invoicing" xmlns="http://www.w3.org/2000/svg" width="24.245" height="36.159" viewBox="0 0 24.245 36.159">
  <g id="Group_763" data-name="Group 763" transform="translate(0)">
    <path id="Path_5091" data-name="Path 5091" d="M108.595,23.185a12.143,12.143,0,0,0-8.048-11.417,6.591,6.591,0,1,0-8.148,0A12.143,12.143,0,0,0,84.35,23.185a6.6,6.6,0,0,0,4.722,6.321,7.442,7.442,0,0,0,14.8,0A6.6,6.6,0,0,0,108.595,23.185ZM92,6.591a4.472,4.472,0,1,1,4.472,4.472A4.477,4.477,0,0,1,92,6.591ZM96.472,34.04a5.323,5.323,0,1,1,5.323-5.323A5.329,5.329,0,0,1,96.472,34.04Zm7.3-6.75a7.442,7.442,0,0,0-14.608,0,4.478,4.478,0,0,1-2.7-4.1,10,10,0,1,1,20.007,0A4.478,4.478,0,0,1,103.776,27.29Z" transform="translate(-84.35)" fill="#c47dcd"/>
    <path id="Path_5092" data-name="Path 5092" d="M218.772,373.531a1.059,1.059,0,0,0-1.551-1.444l-1.865,2-.568-.568a1.059,1.059,0,0,0-1.5,1.5l1.345,1.345a1.059,1.059,0,0,0,.749.31h.019a1.059,1.059,0,0,0,.756-.337Z" transform="translate(-203.895 -345.496)" fill="#c47dcd"/>
  </g>
</svg>
