<svg xmlns="http://www.w3.org/2000/svg" width="30.601" height="30.6" viewBox="0 0 30.601 30.6">
  <g id="performance" transform="translate(98 146.703)">
    <g id="_x3C_Group_x3E_" transform="translate(-98 -146.703)">
      <path id="_x36_" d="M16.79-.015a15.307,15.307,0,0,1,4.386,1.09l.026.011a15.36,15.36,0,0,1,3.891,2.345.477.477,0,0,1,.064.673.3.3,0,0,1-.031.033L22.645,6.615a.482.482,0,0,1-.665.013,10.888,10.888,0,0,0-2.505-1.452l-.023-.01a10.8,10.8,0,0,0-2.808-.732.479.479,0,0,1-.422-.476h0V.457a.484.484,0,0,1,.569-.472Zm4.019,1.974A14.341,14.341,0,0,0,17.182.99V3.543a11.758,11.758,0,0,1,2.636.741.229.229,0,0,1,.024.01,11.852,11.852,0,0,1,2.417,1.35l1.809-1.805a14.43,14.43,0,0,0-3.235-1.872l-.024-.009ZM13.942,4.437A10.858,10.858,0,0,0,8.589,6.653a.48.48,0,0,1-.633-.039h0L5.473,4.139a.478.478,0,0,1,0-.678.47.47,0,0,1,.052-.045,15.357,15.357,0,0,1,3.9-2.341l.026-.01A15.325,15.325,0,0,1,13.855-.019a.479.479,0,0,1,.52.433c0,.014,0,.029,0,.043h0v3.5a.48.48,0,0,1-.436.477ZM10.76,4.294a11.816,11.816,0,0,1,2.658-.751V.99a14.328,14.328,0,0,0-3.6.958l-.023.01A14.427,14.427,0,0,0,6.531,3.84L8.34,5.645a11.857,11.857,0,0,1,2.42-1.351ZM6.665,8.578a10.819,10.819,0,0,0-2.2,5.326.48.48,0,0,1-.476.421H.48A.478.478,0,0,1,0,13.846a.465.465,0,0,1,.008-.088A15.2,15.2,0,0,1,1.1,9.383v0A15.314,15.314,0,0,1,3.461,5.473a.48.48,0,0,1,.675-.063.373.373,0,0,1,.034.03L6.652,7.916a.478.478,0,0,1,.013.662Zm-2.34,2.135A11.906,11.906,0,0,1,5.678,8.3L3.87,6.495A14.417,14.417,0,0,0,1.985,9.747a14.244,14.244,0,0,0-.97,3.619H3.573A11.786,11.786,0,0,1,4.325,10.713ZM27.155,5.49A15.26,15.26,0,0,1,30.6,13.8a.478.478,0,0,1-.434.518l-.042,0H26.61a.48.48,0,0,1-.478-.435,10.757,10.757,0,0,0-.742-2.811h0A10.876,10.876,0,0,0,23.91,8.548a.477.477,0,0,1,.039-.631h0L26.43,5.438a.481.481,0,0,1,.679,0,.44.44,0,0,1,.046.052Zm1.461,4.255a14.345,14.345,0,0,0-1.886-3.25L24.92,8.3a11.788,11.788,0,0,1,1.354,2.412h0v0a11.741,11.741,0,0,1,.752,2.652h2.559a14.311,14.311,0,0,0-.97-3.622Zm1.977,6.987A15.367,15.367,0,0,1,0,16.686a.477.477,0,0,1,.433-.518l.043,0v0H3.99a.48.48,0,0,1,.477.435,10.919,10.919,0,0,0,21.666-.013.479.479,0,0,1,.476-.421h3.511a.48.48,0,0,1,.48.479.539.539,0,0,1-.008.09Zm-5.6,9.148a14.344,14.344,0,0,0,4.594-8.758H27.027a11.881,11.881,0,0,1-23.454,0H1.015A14.418,14.418,0,0,0,24.991,25.88Z" transform="translate(0 0.023)" fill="#b2d14b"/>
      <path id="_x35_" d="M55.9,51.108a3.588,3.588,0,1,1-1.916-1.968A3.572,3.572,0,0,1,55.9,51.108Zm-.919,2.362a2.61,2.61,0,0,0,.03-2.01h0a2.632,2.632,0,1,0-.03,2.011Z" transform="translate(-37.267 -37.165)" fill="#b2d14b"/>
      <path id="_x34_" d="M70.46,47.64,76.53,46.4a.9.9,0,0,1,.638.107.987.987,0,0,1,.445,1.114.9.9,0,0,1-.39.516l-5.29,3.277a.48.48,0,0,1-.661-.154.471.471,0,0,1-.068-.321,2.611,2.611,0,0,0-.158-1.357,2.6,2.6,0,0,0-.339-.6,2.535,2.535,0,0,0-.479-.492.479.479,0,0,1,.23-.851Zm6.23-.3-5.212,1.066h0a3.635,3.635,0,0,1,.69,1.732Z" transform="translate(-53.301 -35.287)" fill="#b2d14b"/>
      <path id="_x33_" d="M60.313,58.046a1.633,1.633,0,0,1-3.036,1.2l0-.005A1.616,1.616,0,0,1,57.293,58a1.632,1.632,0,0,1,.9-.869l0,0a1.63,1.63,0,0,1,2.117.914Zm-.9.868a.677.677,0,0,0-.839-.906.412.412,0,0,1-.062.025.68.68,0,0,0-.36.832.41.41,0,0,1,.026.064.675.675,0,0,0,1.235-.015Z" transform="translate(-43.495 -43.381)" fill="#b2d14b"/>
      <path id="_x32_" d="M31.663,36.743a.479.479,0,0,1-.941-.183,8.074,8.074,0,0,1,.23-.888,8.187,8.187,0,0,1,.326-.857.479.479,0,0,1,.874.39,7.2,7.2,0,0,0-.29.755A7.289,7.289,0,0,0,31.663,36.743Zm2.28-3.972a.478.478,0,1,1-.635-.714,8.132,8.132,0,0,1,7.13-1.83A8.134,8.134,0,0,1,44.6,32.6a.479.479,0,0,1-.7.651,7.155,7.155,0,0,0-7.865-1.76,7.177,7.177,0,0,0-2.086,1.277Z" transform="translate(-23.371 -22.847)" fill="#b2d14b"/>
      <path id="_x31_" d="M49.726,85.4h4.335a1.629,1.629,0,0,1,1.157,2.783h0a1.634,1.634,0,0,1-1.157.478H49.726a1.63,1.63,0,0,1-1.153-.478l0,0a1.622,1.622,0,0,1,0-2.3.316.316,0,0,1,.031-.028,1.628,1.628,0,0,1,1.125-.451Zm4.335.958H49.726a.678.678,0,0,0-.458.179.146.146,0,0,1-.018.019.673.673,0,0,0,.476,1.15h4.335a.678.678,0,0,0,.477-.2h0a.675.675,0,0,0-.478-1.151Z" transform="translate(-36.594 -64.977)" fill="#b2d14b"/>
    </g>
  </g>
</svg>
