<svg xmlns="http://www.w3.org/2000/svg" xmlns:xlink="http://www.w3.org/1999/xlink" width="41.125" height="43.019" viewBox="0 0 41.125 43.019">
  <defs>
    <linearGradient id="linear-gradient" y1="0.5" x2="1" y2="0.5" gradientUnits="objectBoundingBox">
      <stop offset="0" stop-color="#dd3f18"/>
      <stop offset="0.416" stop-color="#e74a1a"/>
      <stop offset="1" stop-color="#fd6120"/>
    </linearGradient>
    <linearGradient id="linear-gradient-2" x1="-7.497" y1="1" x2="-7.497" gradientUnits="objectBoundingBox">
      <stop offset="0" stop-color="#ff7b00"/>
      <stop offset="0.024" stop-color="#ff7c00"/>
      <stop offset="0.674" stop-color="#ffab0e"/>
      <stop offset="1" stop-color="#ffbd14"/>
    </linearGradient>
    <linearGradient id="linear-gradient-3" x1="-33.093" y1="1" x2="-33.093" y2="0" xlink:href="#linear-gradient-2"/>
    <linearGradient id="linear-gradient-5" x1="-10.987" y1="1" x2="-10.987" y2="0" xlink:href="#linear-gradient-2"/>
    <linearGradient id="linear-gradient-6" x1="0.263" y1="0.188" x2="1.263" y2="0.831" gradientUnits="objectBoundingBox">
      <stop offset="0" stop-color="#ffbd14"/>
      <stop offset="0.052" stop-color="#ffb511"/>
      <stop offset="0.273" stop-color="#ff9b09"/>
      <stop offset="0.5" stop-color="#ff8904"/>
      <stop offset="0.738" stop-color="#ff7e01"/>
      <stop offset="1" stop-color="#ff7b00"/>
    </linearGradient>
    <linearGradient id="linear-gradient-7" x1="0.5" y1="1" x2="0.5" gradientUnits="objectBoundingBox">
      <stop offset="0" stop-color="#062a54"/>
      <stop offset="0.272" stop-color="#062b57"/>
      <stop offset="0.518" stop-color="#083262"/>
      <stop offset="0.754" stop-color="#0b3c74"/>
      <stop offset="0.983" stop-color="#0f4a8e"/>
      <stop offset="1" stop-color="#104c91"/>
    </linearGradient>
    <linearGradient id="linear-gradient-8" x1="0.528" y1="0.986" x2="0.528" y2="0.018" xlink:href="#linear-gradient-7"/>
  </defs>
  <g id="Group_576" data-name="Group 576" transform="translate(-252.646 -250.277)">
    <g id="Group_529" data-name="Group 529" transform="translate(254.029 250.277)">
      <path id="Path_5016" data-name="Path 5016" d="M265.753,250.278a10.989,10.989,0,0,0-11.188,10.957,11.288,11.288,0,0,0,11.088,11.32,10.973,10.973,0,0,0,11.19-10.956A11.3,11.3,0,0,0,265.753,250.278Z" transform="translate(-254.565 -250.277)" fill="url(#linear-gradient)"/>
      <g id="Group_525" data-name="Group 525" transform="translate(0)" style="mix-blend-mode: screen;isolation: isolate">
        <path id="Path_5017" data-name="Path 5017" d="M276.843,261.6a10.973,10.973,0,0,1-11.19,10.956,11.288,11.288,0,0,1-11.088-11.32,10.989,10.989,0,0,1,11.188-10.957A11.3,11.3,0,0,1,276.843,261.6Z" transform="translate(-254.565 -250.277)" fill="#ffb82b"/>
      </g>
      <path id="Path_5018" data-name="Path 5018" d="M265.653,276.154a11.268,11.268,0,0,1-11.062-11.034c0,.091-.027.174-.027.264a11.288,11.288,0,0,0,11.088,11.32,10.973,10.973,0,0,0,11.19-10.956c0-.1-.025-.189-.028-.287A10.952,10.952,0,0,1,265.653,276.154Z" transform="translate(-254.565 -254.425)" fill="#f5d5a4" style="mix-blend-mode: multiply;isolation: isolate"/>
      <path id="Path_5019" data-name="Path 5019" d="M265.757,250.919a11.288,11.288,0,0,1,11.056,10.969c0-.1.03-.192.03-.29a11.3,11.3,0,0,0-11.09-11.32,10.989,10.989,0,0,0-11.188,10.957c0,.12.029.233.034.357A10.978,10.978,0,0,1,265.757,250.919Z" transform="translate(-254.565 -250.277)" fill="#ffb82b" style="mix-blend-mode: screen;isolation: isolate"/>
      <g id="Group_526" data-name="Group 526" transform="translate(2.314 2.328)">
        <path id="Path_5020" data-name="Path 5020" d="M275.425,262.461a8.69,8.69,0,0,1-8.863,8.682,8.946,8.946,0,0,1-8.785-8.959,8.69,8.69,0,0,1,8.864-8.676A8.933,8.933,0,0,1,275.425,262.461Z" transform="translate(-257.777 -253.507)" fill="url(#linear-gradient-2)"/>
      </g>
      <path id="Path_5021" data-name="Path 5021" d="M266.568,273.968a8.929,8.929,0,0,1-8.764-8.741c0,.076-.027.154-.027.233a8.946,8.946,0,0,0,8.785,8.959,8.69,8.69,0,0,0,8.863-8.682c0-.073-.018-.143-.021-.211A8.671,8.671,0,0,1,266.568,273.968Z" transform="translate(-255.463 -254.455)" fill="#f5d5a4" style="mix-blend-mode: multiply;isolation: isolate"/>
      <g id="Group_527" data-name="Group 527" transform="translate(4.727 4.491)">
        <path id="Path_5022" data-name="Path 5022" d="M267.507,269.81a6.461,6.461,0,0,1-5.619-3.534,6.967,6.967,0,0,1-.764-3.223,6.391,6.391,0,0,1,6.331-6.544,6.592,6.592,0,0,1,6.5,6.753,6.4,6.4,0,0,1-6.346,6.548Z" transform="translate(-261.125 -256.51)" fill="#f5d5a4" style="mix-blend-mode: multiply;isolation: isolate"/>
        <path id="Path_5023" data-name="Path 5023" d="M273.788,263.459a6.053,6.053,0,0,1-6.173,6.037,6.221,6.221,0,0,1-6.114-6.238,6.049,6.049,0,0,1,6.167-6.032A6.232,6.232,0,0,1,273.788,263.459Z" transform="translate(-261.23 -256.71)" fill="#ffd336"/>
      </g>
      <path id="Path_5024" data-name="Path 5024" d="M273.768,266.238c0-.009,0-.022,0-.032a5.809,5.809,0,0,1-6.138,5.132,5.946,5.946,0,0,1-6.08-5.286l0,.013a6.206,6.206,0,0,0,6.082,5.9A6.034,6.034,0,0,0,273.768,266.238Z" transform="translate(-256.516 -254.686)" fill="#f5d5a4" style="mix-blend-mode: multiply;isolation: isolate"/>
      <path id="Path_5025" data-name="Path 5025" d="M267.67,257.694a6.226,6.226,0,0,1,6.1,5.987c0-.078.022-.146.022-.222a6.232,6.232,0,0,0-6.12-6.233,6.049,6.049,0,0,0-6.167,6.032c0,.085.021.164.024.25A6.038,6.038,0,0,1,267.67,257.694Z" transform="translate(-256.503 -252.219)" fill="#ffb82b" style="mix-blend-mode: screen;isolation: isolate"/>
      <g id="Group_528" data-name="Group 528" transform="translate(9.042 6.117)">
        <path id="Path_5026" data-name="Path 5026" d="M268.642,267.82a5.339,5.339,0,0,1-.909-.143,2.1,2.1,0,0,1-.6-.255l.378-1.207a1.339,1.339,0,0,0,.46.238,3.667,3.667,0,0,0,.682.151l.012-2.433c-.191-.115-.378-.249-.563-.38a2.811,2.811,0,0,1-.495-.48,2.381,2.381,0,0,1-.487-1.5,2.07,2.07,0,0,1,.425-1.367,1.96,1.96,0,0,1,1.141-.652l0-1.022,1.058.021,0,.978a3.182,3.182,0,0,1,.685.132,3.279,3.279,0,0,1,.569.21l-.378,1.155a2.034,2.034,0,0,0-.385-.174,3.624,3.624,0,0,0-.495-.113l-.015,2.2a4.8,4.8,0,0,1,.576.4,2.331,2.331,0,0,1,.507.494,2.374,2.374,0,0,1,.368.635,2.249,2.249,0,0,1,.144.84,2.351,2.351,0,0,1-.442,1.494,1.988,1.988,0,0,1-1.174.723l0,1.042-1.057-.013Zm.5-6.872a.686.686,0,0,0-.553.285.871.871,0,0,0-.152.5.924.924,0,0,0,.2.605,3.606,3.606,0,0,0,.5.452Zm.106,5.659a.8.8,0,0,0,.535-.322,1.108,1.108,0,0,0,.181-.633.963.963,0,0,0-.2-.628,1.933,1.933,0,0,0-.511-.458Z" transform="translate(-267.114 -258.766)" fill="url(#linear-gradient-3)"/>
        <path id="Path_5027" data-name="Path 5027" d="M271.171,264.7a2.374,2.374,0,0,0-.368-.635,2.331,2.331,0,0,0-.507-.494,4.8,4.8,0,0,0-.576-.4l.015-2.2a3.624,3.624,0,0,1,.495.113,2.034,2.034,0,0,1,.385.174l.378-1.155a3.279,3.279,0,0,0-.569-.21,3.182,3.182,0,0,0-.685-.132l0-.978-1.058-.021,0,1.022a1.96,1.96,0,0,0-1.141.652,2.07,2.07,0,0,0-.425,1.367,2.381,2.381,0,0,0,.487,1.5,2.811,2.811,0,0,0,.495.48c.185.13.373.264.563.38l-.012,2.433a3.667,3.667,0,0,1-.682-.151,1.339,1.339,0,0,1-.46-.238l-.378,1.207a2.1,2.1,0,0,0,.6.255,5.339,5.339,0,0,0,.909.143l0,.968,1.057.013,0-1.042a1.988,1.988,0,0,0,1.174-.723,2.351,2.351,0,0,0,.442-1.494A2.249,2.249,0,0,0,271.171,264.7Zm-.445,1.9a1.773,1.773,0,0,1-1.056.64l-.236.054-.005.984-.517-.006,0-.95-.262-.021a4.692,4.692,0,0,1-.88-.135,1.394,1.394,0,0,1-.227-.076l.081-.256a1.575,1.575,0,0,0,.293.122,3.336,3.336,0,0,0,.71.157l.285.037.014-3.354s-.541-.352-.714-.471a2.6,2.6,0,0,1-.471-.449,1.79,1.79,0,0,1-.271-.5,1.5,1.5,0,0,1-.089-.576,1.348,1.348,0,0,1,.3-.932,1.742,1.742,0,0,1,1.026-.574l.236-.049.006-.97.52.014-.005.961.259.022a3.051,3.051,0,0,1,.652.124l.182.055-.066.206c-.068-.027-.141-.055-.22-.08a3.95,3.95,0,0,0-.515-.124l-.292-.054-.019,3.153.2.107a4.838,4.838,0,0,1,.551.379,2.193,2.193,0,0,1,.452.438,2.086,2.086,0,0,1,.308.528,1.373,1.373,0,0,1,.09.525A1.657,1.657,0,0,1,270.726,266.6Z" transform="translate(-267.114 -258.766)" fill="#f5d5a4" style="mix-blend-mode: multiply;isolation: isolate"/>
      </g>
    </g>
    <g id="Group_533" data-name="Group 533" transform="translate(273.402 273.838)">
      <path id="Path_5028" data-name="Path 5028" d="M291.223,282.977a9.6,9.6,0,0,0-9.77,9.569,9.859,9.859,0,0,0,9.683,9.886,9.585,9.585,0,0,0,9.773-9.569A9.872,9.872,0,0,0,291.223,282.977Z" transform="translate(-281.453 -282.976)" fill="url(#linear-gradient)"/>
      <g id="Group_530" data-name="Group 530" transform="translate(0 0)" style="mix-blend-mode: screen;isolation: isolate">
        <path id="Path_5029" data-name="Path 5029" d="M300.91,292.863a9.585,9.585,0,0,1-9.773,9.569,9.859,9.859,0,0,1-9.683-9.886,9.6,9.6,0,0,1,9.77-9.569A9.872,9.872,0,0,1,300.91,292.863Z" transform="translate(-281.453 -282.976)" fill="#ffb82b"/>
      </g>
      <path id="Path_5030" data-name="Path 5030" d="M291.136,305.574a9.839,9.839,0,0,1-9.66-9.635c0,.08-.023.15-.023.231a9.859,9.859,0,0,0,9.683,9.886,9.585,9.585,0,0,0,9.773-9.569c0-.085-.022-.164-.025-.249A9.564,9.564,0,0,1,291.136,305.574Z" transform="translate(-281.453 -286.599)" fill="#f5d5a4" style="mix-blend-mode: multiply;isolation: isolate"/>
      <path id="Path_5031" data-name="Path 5031" d="M291.226,283.537a9.857,9.857,0,0,1,9.656,9.58c0-.085.027-.166.027-.254a9.872,9.872,0,0,0-9.686-9.886,9.6,9.6,0,0,0-9.77,9.569c0,.105.025.2.029.311A9.587,9.587,0,0,1,291.226,283.537Z" transform="translate(-281.453 -282.976)" fill="#ffb82b" style="mix-blend-mode: screen;isolation: isolate"/>
      <g id="Group_531" data-name="Group 531" transform="translate(2.021 2.033)">
        <path id="Path_5032" data-name="Path 5032" d="M299.671,293.617a7.59,7.59,0,0,1-7.741,7.583,7.811,7.811,0,0,1-7.672-7.824A7.588,7.588,0,0,1,292,285.8,7.8,7.8,0,0,1,299.671,293.617Z" transform="translate(-284.258 -285.798)" fill="url(#linear-gradient-5)"/>
      </g>
      <path id="Path_5033" data-name="Path 5033" d="M291.935,303.667a7.8,7.8,0,0,1-7.654-7.635c-.005.066-.024.133-.024.2a7.811,7.811,0,0,0,7.672,7.824,7.59,7.59,0,0,0,7.741-7.583c0-.065-.017-.124-.019-.185A7.576,7.576,0,0,1,291.935,303.667Z" transform="translate(-282.237 -286.625)" fill="#f5d5a4" style="mix-blend-mode: multiply;isolation: isolate"/>
      <g id="Group_532" data-name="Group 532" transform="translate(4.129 3.923)">
        <path id="Path_5034" data-name="Path 5034" d="M292.758,300.034a5.641,5.641,0,0,1-4.909-3.085,6.079,6.079,0,0,1-.665-2.814,5.579,5.579,0,0,1,5.528-5.715,5.754,5.754,0,0,1,5.674,5.9,5.588,5.588,0,0,1-5.54,5.717Z" transform="translate(-287.184 -288.42)" fill="#f5d5a4" style="mix-blend-mode: multiply;isolation: isolate"/>
        <path id="Path_5035" data-name="Path 5035" d="M298.24,294.488a5.285,5.285,0,0,1-5.389,5.272,5.433,5.433,0,0,1-5.341-5.449,5.282,5.282,0,0,1,5.386-5.267A5.442,5.442,0,0,1,298.24,294.488Z" transform="translate(-287.275 -288.594)" fill="#ffd336"/>
      </g>
      <path id="Path_5036" data-name="Path 5036" d="M298.223,296.915v-.028a5.077,5.077,0,0,1-5.361,4.483,5.2,5.2,0,0,1-5.312-4.617v.011a5.422,5.422,0,0,0,5.313,5.151A5.271,5.271,0,0,0,298.223,296.915Z" transform="translate(-283.157 -286.826)" fill="#f5d5a4" style="mix-blend-mode: multiply;isolation: isolate"/>
      <path id="Path_5037" data-name="Path 5037" d="M292.9,289.454a5.436,5.436,0,0,1,5.324,5.227c0-.066.018-.128.018-.192a5.442,5.442,0,0,0-5.344-5.444,5.282,5.282,0,0,0-5.386,5.267c0,.076.019.146.02.219A5.272,5.272,0,0,1,292.9,289.454Z" transform="translate(-283.146 -284.672)" fill="#ffb82b" style="mix-blend-mode: screen;isolation: isolate"/>
      <path id="Path_5038" data-name="Path 5038" d="M295.064,292.178V290.8c-2.311,0-3.807.98-4.142,2.908h-.7v.612h.643c0,.088-.011.174-.011.265,0,.133.008.259.017.385h-.648v.955h.834c.512,1.572,1.973,2.412,4.013,2.412V296.96c-1.206,0-1.922-.325-2.27-1.034h1.974v-.955h-2.213c-.009-.125-.021-.247-.021-.385,0-.091,0-.179.005-.265h2.229v-.612h-2.161C292.823,292.614,293.538,292.178,295.064,292.178Z" transform="translate(-283.902 -285.163)" fill="url(#linear-gradient-6)"/>
      <path id="Path_5039" data-name="Path 5039" d="M295.064,292.178V290.8c-2.311,0-3.807.98-4.142,2.908h-.7v.612h.643c0,.088-.011.174-.011.265,0,.133.008.259.017.385h-.648v.955h.834c.512,1.572,1.973,2.412,4.013,2.412V296.96c-1.206,0-1.922-.325-2.27-1.034h1.974v-.955h-2.213c-.009-.125-.021-.247-.021-.385,0-.091,0-.179.005-.265h2.229v-.612h-2.161C292.823,292.614,293.538,292.178,295.064,292.178Zm-2.775,1.468-.076.386h.015s-.019.455-.019.553c0,.125.009.237.019.351l.024.3.3.063h1.889v.307h-2.171l.229.467a2.352,2.352,0,0,0,2.235,1.207v.73c-1.752-.084-2.946-.85-3.378-2.179l-.073-.225h-.746V295.3h.675l-.027-.349c-.008-.118-.015-.236-.015-.361l.025-.517-.169-.036h.165l.047-.269c.352-2.03,2.029-2.567,3.5-2.631v.728C293.261,291.928,292.521,292.473,292.289,293.646Z" transform="translate(-283.902 -285.163)" fill="#f5d5a4" style="mix-blend-mode: multiply;isolation: isolate"/>
    </g>
    <g id="Group_536" data-name="Group 536" transform="translate(276.842 251.485)">
      <path id="Path_5040" data-name="Path 5040" d="M303.152,269.469a15.957,15.957,0,0,0-1.381-6.476,20.547,20.547,0,0,0-3.943-5.4,18.944,18.944,0,0,0-4.855-3.418l.5-2.225-7.244,2.262,5.583,5.142.468-2.086a16.016,16.016,0,0,1,3.836,2.256,19.086,19.086,0,0,1,4,4.411,14.52,14.52,0,0,1,2.086,5.621,24.617,24.617,0,0,1,.258,6.27A25.328,25.328,0,0,0,303.152,269.469Z" transform="translate(-286.227 -251.953)" fill="url(#linear-gradient-7)"/>
      <g id="Group_534" data-name="Group 534" style="mix-blend-mode: multiply;isolation: isolate">
        <path id="Path_5041" data-name="Path 5041" d="M295.675,253.861l.429-1.908-.033.011-.423,1.882A.161.161,0,0,1,295.675,253.861Z" transform="translate(-288.86 -251.953)" fill="#9fcbd6"/>
        <path id="Path_5042" data-name="Path 5042" d="M303.01,273.468a24.76,24.76,0,0,1-.509,2.871,24.811,24.811,0,0,0-.257-6.269,14.541,14.541,0,0,0-2.088-5.622,19.1,19.1,0,0,0-4-4.41,15.978,15.978,0,0,0-3.836-2.256l-.468,2.087-5.323-4.9-.3.094,5.583,5.142.468-2.086a16.016,16.016,0,0,1,3.836,2.256,19.086,19.086,0,0,1,4,4.411A14.52,14.52,0,0,1,302.2,270.4a24.617,24.617,0,0,1,.258,6.27A25.127,25.127,0,0,0,303.01,273.468Z" transform="translate(-286.227 -252.794)" fill="#9fcbd6"/>
      </g>
      <g id="Group_535" data-name="Group 535" transform="translate(0 0)" style="mix-blend-mode: screen;isolation: isolate">
        <path id="Path_5043" data-name="Path 5043" d="M295.648,255.537a18.849,18.849,0,0,1,4.855,3.417,20.467,20.467,0,0,1,3.944,5.4,14.622,14.622,0,0,1,1.265,4.714,14.969,14.969,0,0,0-1.308-5.182,20.547,20.547,0,0,0-3.943-5.4,18.818,18.818,0,0,0-4.724-3.345Z" transform="translate(-288.86 -252.844)" fill="#284080"/>
        <path id="Path_5044" data-name="Path 5044" d="M308.839,282.938a24.882,24.882,0,0,0-.112-3.95,24.82,24.82,0,0,1,.019,4.4C308.782,283.237,308.806,283.086,308.839,282.938Z" transform="translate(-292.515 -259.508)" fill="#284080"/>
        <path id="Path_5045" data-name="Path 5045" d="M293.356,252.469l.115-.516-7.244,2.262.389.359Z" transform="translate(-286.227 -251.953)" fill="#284080"/>
      </g>
    </g>
    <g id="Group_539" data-name="Group 539" transform="translate(252.646 269.336)">
      <path id="Path_5046" data-name="Path 5046" d="M270.751,297.365l-5.316-5.418-.58,2.09a20.458,20.458,0,0,1-3.942-2.126,21.455,21.455,0,0,1-4.287-3.964,15.944,15.944,0,0,1-2.789-5.2,20.022,20.022,0,0,1-.994-6.019,20.473,20.473,0,0,0,.093,6.24,17.36,17.36,0,0,0,2.169,6.04,21.734,21.734,0,0,0,4.24,4.914,23.3,23.3,0,0,0,4.674,3.127l-.616,2.211Z" transform="translate(-252.646 -276.728)" fill="url(#linear-gradient-8)"/>
      <g id="Group_537" data-name="Group 537" style="mix-blend-mode: multiply;isolation: isolate">
        <path id="Path_5047" data-name="Path 5047" d="M267.667,306.829l-.094.337,7.35-1.894-.245-.25Z" transform="translate(-256.818 -284.635)" fill="#9fcbd6"/>
        <path id="Path_5048" data-name="Path 5048" d="M264.082,296.72a23.41,23.41,0,0,1-4.676-3.126,21.808,21.808,0,0,1-4.24-4.915,17.343,17.343,0,0,1-2.167-6.04,20.615,20.615,0,0,1-.147-5.707c0-.068-.011-.135-.011-.2a20.473,20.473,0,0,0,.093,6.24,17.36,17.36,0,0,0,2.169,6.04,21.734,21.734,0,0,0,4.24,4.914,23.377,23.377,0,0,0,4.65,3.113Z" transform="translate(-252.646 -276.728)" fill="#9fcbd6"/>
      </g>
      <g id="Group_538" data-name="Group 538" transform="translate(0.009)" style="mix-blend-mode: screen;isolation: isolate">
        <path id="Path_5049" data-name="Path 5049" d="M252.858,277.2a20.041,20.041,0,0,0,1,6.018,15.957,15.957,0,0,0,2.789,5.2,21.454,21.454,0,0,0,4.287,3.965,20.4,20.4,0,0,0,3.942,2.126l.581-2.091,4.946,5.042.357-.091-5.316-5.418-.58,2.09a20.458,20.458,0,0,1-3.942-2.126,21.455,21.455,0,0,1-4.287-3.964,15.944,15.944,0,0,1-2.789-5.2,20.022,20.022,0,0,1-.994-6.019,19.209,19.209,0,0,0-.175,3.409A19.131,19.131,0,0,1,252.858,277.2Z" transform="translate(-252.658 -276.728)" fill="#284080"/>
      </g>
    </g>
  </g>
</svg>
