<svg xmlns="http://www.w3.org/2000/svg" width="40.776" height="40.111" viewBox="0 0 40.776 40.111">
  <g id="Group_371" data-name="Group 371" transform="translate(0 -4.174)">
    <path id="Path_5006" data-name="Path 5006" d="M251.814,96H234.587l-1.793,6.937-.644,4.559,3.451,9.624.554,11.678h15.66a2.623,2.623,0,0,0,2.623-2.623V98.623A2.623,2.623,0,0,0,251.814,96Z" transform="translate(-213.662 -84.513)" fill="#e6e6e6"/>
    <path id="Path_5007" data-name="Path 5007" d="M261.185,385.187l-6.87,7.313-2.433-7.313.993-2.666Z" transform="translate(-231.822 -348.216)" fill="#3a5bbc"/>
    <path id="Path_5008" data-name="Path 5008" d="M311.59,198.076v-1.662h-6.316v-2.327h-1.662v2.327H297.92v1.662h9.229a36.533,36.533,0,0,1-2.626,4.622c-1.125-1.406-1.837-2.384-1.845-2.4l-.488-.673-1.345.976.488.673c.038.052.866,1.192,2.177,2.811-.894,1.095-2.533,2.875-3.4,3.739L301.288,209c.746-.746,2.292-2.406,3.3-3.61,1.311,1.557,2.59,2.962,3.811,4.183l.588.588,1.175-1.175-.588-.588c-1.261-1.261-2.59-2.729-3.954-4.364a37.413,37.413,0,0,0,3.361-5.962Z" transform="translate(-274.194 -174.788)" fill="gray"/>
    <path id="Path_5009" data-name="Path 5009" d="M27.82,32.315l1.542,4.657H2.623A2.622,2.622,0,0,1,0,34.349V6.8A2.622,2.622,0,0,1,2.623,4.174H18.5l2.421,7.313,3.632,10.969Z" fill="#518ef8"/>
    <path id="Path_5010" data-name="Path 5010" d="M77.913,144.6a6.177,6.177,0,1,1,4.368-10.546l-1.175,1.176a4.515,4.515,0,1,0,1.245,4.024H77.913V137.59h6.177v.831A6.184,6.184,0,0,1,77.913,144.6Z" transform="translate(-66.023 -117.871)" fill="#fff"/>
  </g>
</svg>
